<?xml version="1.0" encoding="UTF-8"?>
<svg xmlns="http://www.w3.org/2000/svg" width="2.866763in" height="0.580000in"
     viewBox="0 0 2.866763 0.580000">
  <path d="M 0.227868,0.496392 L 0.103068,0.475592 L 0.112932,0.416408 L 0.237732,0.437208 Z" fill="#000000"/>
  <path d="M 0.084717,0.464918 L 0.017117,0.381718 L 0.063683,0.343882 L 0.131283,0.427082 Z" fill="#000000"/>
  <path d="M 0.010549,0.365785 L 0.000149,0.261785 L 0.059851,0.255815 L 0.070251,0.359815 Z" fill="#000000"/>
  <path d="M 0.004402,0.243156 L 0.061602,0.149556 L 0.112798,0.180844 L 0.055598,0.274444 Z" fill="#000000"/>
  <path d="M 0.069555,0.140938 L 0.183955,0.057738 L 0.219245,0.106262 L 0.104845,0.189462 Z" fill="#000000"/>
  <path d="M 0.190831,0.054000 L 0.326031,0.002000 L 0.347569,0.058000 L 0.212369,0.110000 Z" fill="#000000"/>
  <path d="M 0.365768,0.022201 L 0.402168,0.157401 L 0.344232,0.172999 L 0.307832,0.037799 Z" fill="#000000"/>
  <path d="M 0.401660,0.155713 L 0.438060,0.264913 L 0.381140,0.283887 L 0.344740,0.174687 Z" fill="#000000"/>
  <path d="M 0.438704,0.281676 L 0.412704,0.385676 L 0.354496,0.371124 L 0.380496,0.267124 Z" fill="#000000"/>
  <path d="M 0.403248,0.401071 L 0.325248,0.468671 L 0.285952,0.423329 L 0.363952,0.355729 Z" fill="#000000"/>
  <path d="M 0.313842,0.474846 L 0.241042,0.495646 L 0.224558,0.437954 L 0.297358,0.417154 Z" fill="#000000"/>
  <path d="M 0.172800,0.550000 L 0.172800,0.466800 L 0.232800,0.466800 L 0.232800,0.550000 Z" fill="#000000"/>
  <path d="M 0.172904,0.464309 L 0.178104,0.401909 L 0.237896,0.406891 L 0.232696,0.469291 Z" fill="#000000"/>
  <path d="M 0.178768,0.397654 L 0.194368,0.330054 L 0.252832,0.343546 L 0.237232,0.411146 Z" fill="#000000"/>
  <path d="M 0.194754,0.328558 L 0.215554,0.255758 L 0.273246,0.272242 L 0.252446,0.345042 Z" fill="#000000"/>
  <path d="M 0.215554,0.255758 L 0.225954,0.219358 L 0.283646,0.235842 L 0.273246,0.272242 Z" fill="#000000"/>
  <path d="M 0.232800,0.550000 L 0.230516,0.538519 L 0.224013,0.528787 L 0.214281,0.522284 L 0.202800,0.520000 L 0.191319,0.522284 L 0.181587,0.528787 L 0.175084,0.538519 L 0.172800,0.550000 L 0.175084,0.561481 L 0.181587,0.571213 L 0.191319,0.577716 L 0.202800,0.580000 L 0.214281,0.577716 L 0.224013,0.571213 L 0.230516,0.561481 Z" fill="#000000"/>
  <path d="M 0.060000,0.258800 L 0.057716,0.247319 L 0.051213,0.237587 L 0.041481,0.231084 L 0.030000,0.228800 L 0.018519,0.231084 L 0.008787,0.237587 L 0.002284,0.247319 L 0.000000,0.258800 L 0.002284,0.270281 L 0.008787,0.280013 L 0.018519,0.286516 L 0.030000,0.288800 L 0.041481,0.286516 L 0.051213,0.280013 L 0.057716,0.270281 Z" fill="#000000"/>
  <path d="M 0.274400,0.264000 L 0.272116,0.252519 L 0.265613,0.242787 L 0.255881,0.236284 L 0.244400,0.234000 L 0.232919,0.236284 L 0.223187,0.242787 L 0.216684,0.252519 L 0.214400,0.264000 L 0.216684,0.275481 L 0.223187,0.285213 L 0.232919,0.291716 L 0.244400,0.294000 L 0.255881,0.291716 L 0.265613,0.285213 L 0.272116,0.275481 Z" fill="#000000"/>
  <path d="M 0.232800,0.466800 L 0.230516,0.455319 L 0.224013,0.445587 L 0.214281,0.439084 L 0.202800,0.436800 L 0.191319,0.439084 L 0.181587,0.445587 L 0.175084,0.455319 L 0.172800,0.466800 L 0.175084,0.478281 L 0.181587,0.488013 L 0.191319,0.494516 L 0.202800,0.496800 L 0.214281,0.494516 L 0.224013,0.488013 L 0.230516,0.478281 Z" fill="#000000"/>
  <path d="M 0.403200,0.165200 L 0.400916,0.153719 L 0.394413,0.143987 L 0.384681,0.137484 L 0.373200,0.135200 L 0.361719,0.137484 L 0.351987,0.143987 L 0.345484,0.153719 L 0.343200,0.165200 L 0.345484,0.176681 L 0.351987,0.186413 L 0.361719,0.192916 L 0.373200,0.195200 L 0.384681,0.192916 L 0.394413,0.186413 L 0.400916,0.176681 Z" fill="#000000"/>
  <path d="M 0.253600,0.336800 L 0.251316,0.325319 L 0.244813,0.315587 L 0.235081,0.309084 L 0.223600,0.306800 L 0.212119,0.309084 L 0.202387,0.315587 L 0.195884,0.325319 L 0.193600,0.336800 L 0.195884,0.348281 L 0.202387,0.358013 L 0.212119,0.364516 L 0.223600,0.366800 L 0.235081,0.364516 L 0.244813,0.358013 L 0.251316,0.348281 Z" fill="#000000"/>
  <path d="M 0.284800,0.227600 L 0.282516,0.216119 L 0.276013,0.206387 L 0.266281,0.199884 L 0.254800,0.197600 L 0.243319,0.199884 L 0.233587,0.206387 L 0.227084,0.216119 L 0.224800,0.227600 L 0.227084,0.239081 L 0.233587,0.248813 L 0.243319,0.255316 L 0.254800,0.257600 L 0.266281,0.255316 L 0.276013,0.248813 L 0.282516,0.239081 Z" fill="#000000"/>
  <path d="M 0.335600,0.446000 L 0.333316,0.434519 L 0.326813,0.424787 L 0.317081,0.418284 L 0.305600,0.416000 L 0.294119,0.418284 L 0.284387,0.424787 L 0.277884,0.434519 L 0.275600,0.446000 L 0.277884,0.457481 L 0.284387,0.467213 L 0.294119,0.473716 L 0.305600,0.476000 L 0.317081,0.473716 L 0.326813,0.467213 L 0.333316,0.457481 Z" fill="#000000"/>
  <path d="M 0.262800,0.466800 L 0.260516,0.455319 L 0.254013,0.445587 L 0.244281,0.439084 L 0.232800,0.436800 L 0.221319,0.439084 L 0.211587,0.445587 L 0.205084,0.455319 L 0.202800,0.466800 L 0.205084,0.478281 L 0.211587,0.488013 L 0.221319,0.494516 L 0.232800,0.496800 L 0.244281,0.494516 L 0.254013,0.488013 L 0.260516,0.478281 Z" fill="#000000"/>
  <path d="M 0.117200,0.165200 L 0.114916,0.153719 L 0.108413,0.143987 L 0.098681,0.137484 L 0.087200,0.135200 L 0.075719,0.137484 L 0.065987,0.143987 L 0.059484,0.153719 L 0.057200,0.165200 L 0.059484,0.176681 L 0.065987,0.186413 L 0.075719,0.192916 L 0.087200,0.195200 L 0.098681,0.192916 L 0.108413,0.186413 L 0.114916,0.176681 Z" fill="#000000"/>
  <path d="M 0.439600,0.274400 L 0.437316,0.262919 L 0.430813,0.253187 L 0.421081,0.246684 L 0.409600,0.244400 L 0.398119,0.246684 L 0.388387,0.253187 L 0.381884,0.262919 L 0.379600,0.274400 L 0.381884,0.285881 L 0.388387,0.295613 L 0.398119,0.302116 L 0.409600,0.304400 L 0.421081,0.302116 L 0.430813,0.295613 L 0.437316,0.285881 Z" fill="#000000"/>
  <path d="M 0.138000,0.446000 L 0.135716,0.434519 L 0.129213,0.424787 L 0.119481,0.418284 L 0.108000,0.416000 L 0.096519,0.418284 L 0.086787,0.424787 L 0.080284,0.434519 L 0.078000,0.446000 L 0.080284,0.457481 L 0.086787,0.467213 L 0.096519,0.473716 L 0.108000,0.476000 L 0.119481,0.473716 L 0.129213,0.467213 L 0.135716,0.457481 Z" fill="#000000"/>
  <path d="M 0.413600,0.378400 L 0.411316,0.366919 L 0.404813,0.357187 L 0.395081,0.350684 L 0.383600,0.348400 L 0.372119,0.350684 L 0.362387,0.357187 L 0.355884,0.366919 L 0.353600,0.378400 L 0.355884,0.389881 L 0.362387,0.399613 L 0.372119,0.406116 L 0.383600,0.408400 L 0.395081,0.406116 L 0.404813,0.399613 L 0.411316,0.389881 Z" fill="#000000"/>
  <path d="M 0.070400,0.362800 L 0.068116,0.351319 L 0.061613,0.341587 L 0.051881,0.335084 L 0.040400,0.332800 L 0.028919,0.335084 L 0.019187,0.341587 L 0.012684,0.351319 L 0.010400,0.362800 L 0.012684,0.374281 L 0.019187,0.384013 L 0.028919,0.390516 L 0.040400,0.392800 L 0.051881,0.390516 L 0.061613,0.384013 L 0.068116,0.374281 Z" fill="#000000"/>
  <path d="M 0.231600,0.082000 L 0.229316,0.070519 L 0.222813,0.060787 L 0.213081,0.054284 L 0.201600,0.052000 L 0.190119,0.054284 L 0.180387,0.060787 L 0.173884,0.070519 L 0.171600,0.082000 L 0.173884,0.093481 L 0.180387,0.103213 L 0.190119,0.109716 L 0.201600,0.112000 L 0.213081,0.109716 L 0.222813,0.103213 L 0.229316,0.093481 Z" fill="#000000"/>
  <path d="M 0.366800,0.030000 L 0.364516,0.018519 L 0.358013,0.008787 L 0.348281,0.002284 L 0.336800,0.000000 L 0.325319,0.002284 L 0.315587,0.008787 L 0.309084,0.018519 L 0.306800,0.030000 L 0.309084,0.041481 L 0.315587,0.051213 L 0.325319,0.057716 L 0.336800,0.060000 L 0.348281,0.057716 L 0.358013,0.051213 L 0.364516,0.041481 Z" fill="#000000"/>
  <path d="M 0.238000,0.404400 L 0.235716,0.392919 L 0.229213,0.383187 L 0.219481,0.376684 L 0.208000,0.374400 L 0.196519,0.376684 L 0.186787,0.383187 L 0.180284,0.392919 L 0.178000,0.404400 L 0.180284,0.415881 L 0.186787,0.425613 L 0.196519,0.432116 L 0.208000,0.434400 L 0.219481,0.432116 L 0.229213,0.425613 L 0.235716,0.415881 Z" fill="#000000"/>
  <path d="M 0.644366,0.349000 L 0.641956,0.349560 L 0.639468,0.350129 L 0.636904,0.350708 L 0.634262,0.351296 L 0.631544,0.351892 L 0.628750,0.352498 L 0.625878,0.353113 L 0.622930,0.353737 L 0.619905,0.354370 L 0.616803,0.355012 L 0.613624,0.355664 L 0.610507,0.356300 L 0.607591,0.356897 L 0.604875,0.357456 L 0.602359,0.357975 L 0.600044,0.358455 L 0.597929,0.358896 L 0.596015,0.359299 L 0.594301,0.359662 L 0.592787,0.359986 L 0.591474,0.360271 L 0.590361,0.360517 L 0.589449,0.360724 L 0.585645,0.361635 L 0.581979,0.362681 L 0.578451,0.363863 L 0.575061,0.365180 L 0.571808,0.366632 L 0.568694,0.368220 L 0.565718,0.369943 L 0.562880,0.371801 L 0.560179,0.373795 L 0.557617,0.375924 L 0.555192,0.378188 L 0.552906,0.380588 L 0.550780,0.383099 L 0.548840,0.385695 L 0.547084,0.388377 L 0.545514,0.391145 L 0.544128,0.393999 L 0.542926,0.396939 L 0.541910,0.399965 L 0.541078,0.403077 L 0.540432,0.406274 L 0.539970,0.409558 L 0.539692,0.412927 L 0.539600,0.416382 L 0.539656,0.418959 L 0.539824,0.421504 L 0.540104,0.424019 L 0.540495,0.426502 L 0.540999,0.428954 L 0.541615,0.431374 L 0.542342,0.433764 L 0.543181,0.436122 L 0.544133,0.438449 L 0.545196,0.440744 L 0.546371,0.443009 L 0.547658,0.445242 L 0.549049,0.447421 L 0.550535,0.449524 L 0.552115,0.451549 L 0.553791,0.453498 L 0.555561,0.455370 L 0.557427,0.457166 L 0.559387,0.458884 L 0.561443,0.460526 L 0.563593,0.462091 L 0.565839,0.463579 L 0.568180,0.464990 L 0.570615,0.466325 L 0.573131,0.467567 L 0.575714,0.468701 L 0.578363,0.469727 L 0.581078,0.470646 L 0.583860,0.471456 L 0.586708,0.472158 L 0.589623,0.472752 L 0.592604,0.473238 L 0.595651,0.473616 L 0.598765,0.473886 L 0.601945,0.474048 L 0.605191,0.474102 L 0.608753,0.474052 L 0.612258,0.473902 L 0.615703,0.473651 L 0.619090,0.473300 L 0.622418,0.472849 L 0.625688,0.472298 L 0.628899,0.471647 L 0.632052,0.470895 L 0.635146,0.470044 L 0.638182,0.469092 L 0.641158,0.468039 L 0.644077,0.466887 L 0.646974,0.465634 L 0.649889,0.464282 L 0.652820,0.462829 L 0.655769,0.461275 L 0.658734,0.459622 L 0.661716,0.457868 L 0.664715,0.456014 L 0.667731,0.454060 L 0.670764,0.452006 L 0.673814,0.449852 L 0.676881,0.447597 L 0.679964,0.445242 L 0.681395,0.447538 L 0.682812,0.449742 L 0.684216,0.451854 L 0.685607,0.453873 L 0.686986,0.455800 L 0.688351,0.457634 L 0.689703,0.459376 L 0.691042,0.461026 L 0.692368,0.462583 L 0.693681,0.464047 L 0.694981,0.465420 L 0.696268,0.466700 L 0.697550,0.467882 L 0.698835,0.468961 L 0.700122,0.469938 L 0.701412,0.470812 L 0.702704,0.471583 L 0.703999,0.472251 L 0.705296,0.472817 L 0.706596,0.473280 L 0.707899,0.473639 L 0.709204,0.473896 L 0.710512,0.474051 L 0.711823,0.474102 L 0.713371,0.474057 L 0.714892,0.473922 L 0.716385,0.473698 L 0.717851,0.473384 L 0.719290,0.472980 L 0.720701,0.472486 L 0.722085,0.471902 L 0.723442,0.471229 L 0.724771,0.470465 L 0.726073,0.469612 L 0.727348,0.468669 L 0.728595,0.467637 L 0.729778,0.466549 L 0.730857,0.465442 L 0.731834,0.464316 L 0.732708,0.463170 L 0.733479,0.462005 L 0.734147,0.460820 L 0.734713,0.459615 L 0.735175,0.458391 L 0.735535,0.457148 L 0.735792,0.455885 L 0.735946,0.454602 L 0.735998,0.453300 L 0.735965,0.452473 L 0.735865,0.451491 L 0.735699,0.450355 L 0.735467,0.449063 L 0.735168,0.447616 L 0.734803,0.446015 L 0.734372,0.444259 L 0.733874,0.442348 L 0.733310,0.440282 L 0.732679,0.438061 L 0.731982,0.435685 L 0.731219,0.433155 L 0.730456,0.430555 L 0.729759,0.427972 L 0.729128,0.425407 L 0.728564,0.422858 L 0.728066,0.420326 L 0.727635,0.417811 L 0.727270,0.415313 L 0.726971,0.412832 L 0.726739,0.410368 L 0.726573,0.407920 L 0.726473,0.405490 L 0.726440,0.403077 L 0.726471,0.400535 L 0.726500,0.398032 L 0.726528,0.395569 L 0.726555,0.393144 L 0.726580,0.390759 L 0.726604,0.388412 L 0.726627,0.386105 L 0.726648,0.383837 L 0.726669,0.381607 L 0.726687,0.379417 L 0.726705,0.377266 L 0.726721,0.375154 L 0.726736,0.373023 L 0.726750,0.370817 L 0.726762,0.368536 L 0.726773,0.366179 L 0.726783,0.363747 L 0.726792,0.361239 L 0.726799,0.358656 L 0.726805,0.355997 L 0.726809,0.353263 L 0.726812,0.350453 L 0.726814,0.347568 L 0.726815,0.344607 L 0.726760,0.339938 L 0.726594,0.335424 L 0.726317,0.331067 L 0.725930,0.326866 L 0.725432,0.322821 L 0.724824,0.318933 L 0.724105,0.315200 L 0.723275,0.311624 L 0.722335,0.308204 L 0.721284,0.304940 L 0.720123,0.301832 L 0.718850,0.298881 L 0.717444,0.296072 L 0.715881,0.293391 L 0.714160,0.290840 L 0.712281,0.288417 L 0.710245,0.286124 L 0.708051,0.283959 L 0.705700,0.281923 L 0.703192,0.280016 L 0.700526,0.278237 L 0.697703,0.276588 L 0.694722,0.275067 L 0.691583,0.273675 L 0.688266,0.272403 L 0.684748,0.271242 L 0.681030,0.270191 L 0.677112,0.269250 L 0.672993,0.268421 L 0.668673,0.267702 L 0.664154,0.267093 L 0.659433,0.266596 L 0.654513,0.266208 L 0.649392,0.265932 L 0.644070,0.265766 L 0.638549,0.265711 L 0.633589,0.265768 L 0.628767,0.265940 L 0.624083,0.266226 L 0.619538,0.266627 L 0.615130,0.267142 L 0.610860,0.267772 L 0.606728,0.268516 L 0.602734,0.269375 L 0.598878,0.270349 L 0.595160,0.271437 L 0.591579,0.272639 L 0.588137,0.273956 L 0.584839,0.275362 L 0.581688,0.276830 L 0.578686,0.278360 L 0.575832,0.279953 L 0.573126,0.281609 L 0.570569,0.283326 L 0.568160,0.285107 L 0.565899,0.286950 L 0.563787,0.288855 L 0.561823,0.290822 L 0.560007,0.292853 L 0.558340,0.294945 L 0.556814,0.297074 L 0.555420,0.299214 L 0.554159,0.301364 L 0.553031,0.303524 L 0.552035,0.305695 L 0.551172,0.307876 L 0.550442,0.310068 L 0.549845,0.312270 L 0.549380,0.314482 L 0.549048,0.316705 L 0.548849,0.318938 L 0.548783,0.321182 L 0.548826,0.322597 L 0.548957,0.323969 L 0.549175,0.325299 L 0.549480,0.326585 L 0.549873,0.327829 L 0.550352,0.329029 L 0.550919,0.330187 L 0.551573,0.331301 L 0.552314,0.332373 L 0.553142,0.333402 L 0.554058,0.334388 L 0.555061,0.335331 L 0.556123,0.336214 L 0.557219,0.337020 L 0.558346,0.337749 L 0.559506,0.338402 L 0.560699,0.338978 L 0.561924,0.339477 L 0.563182,0.339899 L 0.564472,0.340245 L 0.565795,0.340513 L 0.567151,0.340705 L 0.568539,0.340821 L 0.569959,0.340859 L 0.571506,0.340835 L 0.572960,0.340763 L 0.574322,0.340642 L 0.575592,0.340474 L 0.576769,0.340257 L 0.577854,0.339992 L 0.578846,0.339679 L 0.579746,0.339318 L 0.580553,0.338909 L 0.581268,0.338451 L 0.581891,0.337946 L 0.582421,0.337392 L 0.582934,0.336763 L 0.583504,0.336031 L 0.584132,0.335196 L 0.584816,0.334258 L 0.585558,0.333218 L 0.586357,0.332074 L 0.587213,0.330828 L 0.588127,0.329479 L 0.589098,0.328028 L 0.590126,0.326473 L 0.591211,0.324816 L 0.592354,0.323056 L 0.593545,0.321282 L 0.594774,0.319584 L 0.596043,0.317961 L 0.597351,0.316413 L 0.598698,0.314941 L 0.600084,0.313545 L 0.601509,0.312224 L 0.602973,0.310979 L 0.604476,0.309809 L 0.606019,0.308714 L 0.607600,0.307695 L 0.609220,0.306752 L 0.610927,0.305884 L 0.612768,0.305091 L 0.614743,0.304374 L 0.616851,0.303732 L 0.619094,0.303166 L 0.621472,0.302676 L 0.623983,0.302261 L 0.626628,0.301921 L 0.629407,0.301657 L 0.632320,0.301468 L 0.635367,0.301355 L 0.638549,0.301317 L 0.642220,0.301383 L 0.645678,0.301580 L 0.648920,0.301909 L 0.651948,0.302369 L 0.654761,0.302960 L 0.657359,0.303683 L 0.659743,0.304537 L 0.661911,0.305523 L 0.663865,0.306640 L 0.665605,0.307889 L 0.667129,0.309269 L 0.668439,0.310781 L 0.669598,0.312433 L 0.670670,0.314235 L 0.671654,0.316186 L 0.672552,0.318287 L 0.673362,0.320538 L 0.674085,0.322939 L 0.674720,0.325489 L 0.675269,0.328188 L 0.675730,0.331038 L 0.676104,0.334037 L 0.676391,0.337186 L 0.676591,0.340484 L 0.673921,0.341255 L 0.671284,0.342007 L 0.668679,0.342739 L 0.666107,0.343451 L 0.663567,0.344144 L 0.661060,0.344818 L 0.658586,0.345472 L 0.656143,0.346106 L 0.653734,0.346721 L 0.651357,0.347317 L 0.649012,0.347892 L 0.646701,0.348449 L 0.644366,0.349000 Z M 1.456771,0.277370 L 1.456019,0.278933 L 1.455355,0.280598 L 1.454780,0.282366 L 1.454293,0.284237 L 1.453895,0.286210 L 1.453585,0.288287 L 1.453364,0.290466 L 1.453231,0.292748 L 1.453187,0.295133 L 1.453187,0.442993 L 1.453236,0.445444 L 1.453385,0.447798 L 1.453632,0.450056 L 1.453978,0.452218 L 1.454423,0.454283 L 1.454967,0.456252 L 1.455610,0.458125 L 1.456352,0.459901 L 1.457192,0.461581 L 1.458132,0.463165 L 1.459171,0.464653 L 1.460308,0.466044 L 1.461522,0.467331 L 1.462791,0.468506 L 1.464115,0.469569 L 1.465493,0.470521 L 1.466926,0.471360 L 1.468413,0.472087 L 1.469955,0.472703 L 1.471552,0.473207 L 1.473204,0.473598 L 1.474910,0.473878 L 1.476671,0.474046 L 1.478486,0.474102 L 1.480362,0.474048 L 1.482179,0.473886 L 1.483938,0.473616 L 1.485639,0.473238 L 1.487280,0.472752 L 1.488863,0.472158 L 1.490388,0.471456 L 1.491854,0.470645 L 1.493262,0.469727 L 1.494610,0.468701 L 1.495901,0.467567 L 1.497133,0.466325 L 1.498285,0.464975 L 1.499337,0.463516 L 1.500289,0.461950 L 1.501141,0.460276 L 1.501892,0.458494 L 1.502544,0.456603 L 1.503095,0.454605 L 1.503546,0.452499 L 1.503897,0.450284 L 1.504147,0.447962 L 1.504297,0.445532 L 1.504348,0.442993 L 1.504348,0.378902 L 1.504374,0.373824 L 1.504452,0.369021 L 1.504582,0.364495 L 1.504764,0.360245 L 1.504998,0.356270 L 1.505285,0.352572 L 1.505623,0.349149 L 1.506013,0.346002 L 1.506456,0.343131 L 1.506950,0.340536 L 1.507497,0.338217 L 1.508096,0.336174 L 1.509012,0.333842 L 1.510011,0.331596 L 1.511094,0.329433 L 1.512260,0.327356 L 1.513509,0.325362 L 1.514842,0.323454 L 1.516258,0.321630 L 1.517757,0.319891 L 1.519340,0.318236 L 1.521006,0.316666 L 1.522755,0.315180 L 1.524587,0.313779 L 1.526478,0.312477 L 1.528403,0.311288 L 1.530361,0.310213 L 1.532354,0.309250 L 1.534380,0.308401 L 1.536440,0.307665 L 1.538534,0.307043 L 1.540662,0.306533 L 1.542824,0.306137 L 1.545019,0.305854 L 1.547248,0.305684 L 1.549512,0.305627 L 1.552913,0.305720 L 1.556120,0.305999 L 1.559134,0.306465 L 1.561953,0.307116 L 1.564579,0.307954 L 1.567010,0.308977 L 1.569248,0.310187 L 1.571292,0.311582 L 1.573142,0.313164 L 1.574798,0.314932 L 1.576260,0.316886 L 1.577528,0.319027 L 1.578651,0.321342 L 1.579676,0.323824 L 1.580603,0.326470 L 1.581432,0.329282 L 1.582164,0.332259 L 1.582799,0.335401 L 1.583336,0.338708 L 1.583775,0.342181 L 1.584117,0.345819 L 1.584361,0.349623 L 1.584507,0.353591 L 1.584556,0.357725 L 1.584556,0.442993 L 1.584605,0.445444 L 1.584754,0.447798 L 1.585001,0.450056 L 1.585347,0.452218 L 1.585792,0.454283 L 1.586336,0.456252 L 1.586979,0.458125 L 1.587721,0.459901 L 1.588562,0.461581 L 1.589501,0.463165 L 1.590540,0.464653 L 1.591677,0.466044 L 1.592894,0.467331 L 1.594171,0.468506 L 1.595507,0.469569 L 1.596904,0.470521 L 1.598360,0.471360 L 1.599876,0.472087 L 1.601452,0.472703 L 1.603088,0.473207 L 1.604784,0.473598 L 1.606539,0.473878 L 1.608355,0.474046 L 1.610230,0.474102 L 1.612075,0.474047 L 1.613861,0.473883 L 1.615588,0.473610 L 1.617258,0.473227 L 1.618868,0.472736 L 1.620420,0.472134 L 1.621913,0.471424 L 1.623348,0.470604 L 1.624724,0.469675 L 1.626042,0.468636 L 1.627301,0.467488 L 1.628502,0.466231 L 1.629624,0.464867 L 1.630649,0.463399 L 1.631576,0.461827 L 1.632406,0.460151 L 1.633138,0.458371 L 1.633772,0.456486 L 1.634309,0.454498 L 1.634748,0.452405 L 1.635090,0.450208 L 1.635334,0.447907 L 1.635480,0.445502 L 1.635529,0.442993 L 1.635529,0.347793 L 1.635519,0.345023 L 1.635488,0.342337 L 1.635436,0.339735 L 1.635363,0.337215 L 1.635269,0.334779 L 1.635154,0.332426 L 1.635019,0.330156 L 1.634863,0.327970 L 1.634686,0.325867 L 1.634488,0.323847 L 1.634270,0.321910 L 1.634030,0.320057 L 1.633755,0.318256 L 1.633431,0.316476 L 1.633058,0.314716 L 1.632635,0.312978 L 1.632163,0.311260 L 1.631641,0.309563 L 1.631069,0.307887 L 1.630449,0.306231 L 1.629778,0.304597 L 1.629059,0.302983 L 1.628290,0.301390 L 1.627471,0.299818 L 1.626103,0.297182 L 1.624624,0.294649 L 1.623032,0.292216 L 1.621328,0.289885 L 1.619513,0.287656 L 1.617586,0.285528 L 1.615546,0.283502 L 1.613395,0.281577 L 1.611132,0.279754 L 1.608757,0.278032 L 1.606270,0.276412 L 1.603671,0.274893 L 1.600986,0.273486 L 1.598241,0.272202 L 1.595437,0.271040 L 1.592572,0.270000 L 1.589648,0.269083 L 1.586664,0.268287 L 1.583620,0.267615 L 1.580516,0.267064 L 1.577353,0.266636 L 1.574129,0.266330 L 1.570846,0.266147 L 1.567502,0.266085 L 1.564068,0.266143 L 1.560701,0.266317 L 1.557400,0.266607 L 1.554165,0.267012 L 1.550997,0.267533 L 1.547895,0.268170 L 1.544860,0.268923 L 1.541891,0.269792 L 1.538988,0.270776 L 1.536151,0.271877 L 1.533381,0.273093 L 1.530678,0.274425 L 1.528025,0.275880 L 1.525407,0.277467 L 1.522824,0.279186 L 1.520277,0.281036 L 1.517764,0.283017 L 1.515287,0.285130 L 1.512845,0.287374 L 1.510438,0.289750 L 1.508066,0.292257 L 1.505730,0.294896 L 1.503428,0.297666 L 1.501162,0.300567 L 1.501162,0.294383 L 1.501139,0.292872 L 1.501071,0.291400 L 1.500957,0.289967 L 1.500797,0.288574 L 1.500592,0.287219 L 1.500342,0.285903 L 1.500046,0.284626 L 1.499704,0.283389 L 1.499317,0.282190 L 1.498884,0.281031 L 1.498406,0.279910 L 1.497882,0.278829 L 1.497321,0.277789 L 1.496729,0.276793 L 1.496108,0.275842 L 1.495456,0.274935 L 1.494775,0.274072 L 1.494064,0.273254 L 1.493323,0.272479 L 1.492552,0.271749 L 1.491751,0.271063 L 1.490920,0.270422 L 1.490059,0.269824 L 1.489168,0.269271 L 1.488253,0.268762 L 1.487320,0.268298 L 1.486369,0.267877 L 1.485399,0.267501 L 1.484411,0.267169 L 1.483405,0.266882 L 1.482381,0.266638 L 1.481339,0.266439 L 1.480278,0.266284 L 1.479199,0.266174 L 1.478102,0.266107 L 1.476987,0.266085 L 1.475177,0.266135 L 1.473431,0.266286 L 1.471751,0.266536 L 1.470136,0.266887 L 1.468586,0.267338 L 1.467101,0.267889 L 1.465681,0.268540 L 1.464327,0.269292 L 1.463037,0.270144 L 1.461812,0.271096 L 1.460653,0.272148 L 1.459558,0.273300 L 1.458541,0.274554 L 1.457611,0.275911 L 1.456771,0.277370 Z M 2.179129,0.473886 L 2.180888,0.473616 L 2.182588,0.473238 L 2.184230,0.472752 L 2.185813,0.472158 L 2.187338,0.471456 L 2.188804,0.470645 L 2.190211,0.469727 L 2.191560,0.468701 L 2.192850,0.467567 L 2.194082,0.466325 L 2.195235,0.464975 L 2.196287,0.463516 L 2.197239,0.461950 L 2.198090,0.460276 L 2.198842,0.458494 L 2.199493,0.456603 L 2.200045,0.454605 L 2.200495,0.452499 L 2.200846,0.450284 L 2.201097,0.447962 L 2.201247,0.445532 L 2.201297,0.442993 L 2.201297,0.221109 L 2.201248,0.218570 L 2.201099,0.216140 L 2.200852,0.213818 L 2.200506,0.211603 L 2.200061,0.209497 L 2.199517,0.207499 L 2.198874,0.205608 L 2.198132,0.203826 L 2.197291,0.202152 L 2.196352,0.200586 L 2.195313,0.199127 L 2.194176,0.197777 L 2.192958,0.196535 L 2.191677,0.195401 L 2.190334,0.194375 L 2.188929,0.193457 L 2.187461,0.192646 L 2.185930,0.191944 L 2.184337,0.191350 L 2.182682,0.190864 L 2.180964,0.190486 L 2.179184,0.190216 L 2.177341,0.190054 L 2.175436,0.190000 L 2.173532,0.190055 L 2.171695,0.190219 L 2.169925,0.190492 L 2.168221,0.190875 L 2.166583,0.191366 L 2.165011,0.191968 L 2.163506,0.192678 L 2.162068,0.193498 L 2.160695,0.194427 L 2.159389,0.195466 L 2.158150,0.196614 L 2.156976,0.197871 L 2.155884,0.199235 L 2.154886,0.200703 L 2.153984,0.202275 L 2.153176,0.203951 L 2.152464,0.205731 L 2.151846,0.207616 L 2.151324,0.209604 L 2.150896,0.211697 L 2.150564,0.213894 L 2.150326,0.216195 L 2.150184,0.218600 L 2.150136,0.221109 L 2.150136,0.442993 L 2.150185,0.445444 L 2.150331,0.447798 L 2.150575,0.450056 L 2.150917,0.452218 L 2.151356,0.454283 L 2.151893,0.456252 L 2.152528,0.458125 L 2.153260,0.459901 L 2.154089,0.461581 L 2.155017,0.463165 L 2.156041,0.464653 L 2.157164,0.466044 L 2.158364,0.467331 L 2.159624,0.468506 L 2.160941,0.469569 L 2.162317,0.470521 L 2.163752,0.471360 L 2.165246,0.472087 L 2.166797,0.472703 L 2.168408,0.473207 L 2.170077,0.473598 L 2.171805,0.473878 L 2.173591,0.474046 L 2.175436,0.474102 L 2.177312,0.474048 L 2.179129,0.473886 Z M 0.782121,0.399807 L 0.780834,0.400265 L 0.779591,0.400807 L 0.778392,0.401432 L 0.777238,0.402140 L 0.776128,0.402931 L 0.775062,0.403805 L 0.774040,0.404763 L 0.773083,0.405780 L 0.772208,0.406830 L 0.771417,0.407914 L 0.770709,0.409032 L 0.770084,0.410183 L 0.769543,0.411369 L 0.769085,0.412588 L 0.768710,0.413842 L 0.768418,0.415129 L 0.768210,0.416450 L 0.768085,0.417805 L 0.768044,0.419193 L 0.768109,0.421316 L 0.768304,0.423438 L 0.768630,0.425559 L 0.769085,0.427678 L 0.769671,0.429796 L 0.770386,0.431913 L 0.771232,0.434029 L 0.772208,0.436143 L 0.773314,0.438255 L 0.774551,0.440367 L 0.775917,0.442477 L 0.777414,0.444586 L 0.779047,0.446665 L 0.780823,0.448686 L 0.782743,0.450647 L 0.784806,0.452551 L 0.787012,0.454395 L 0.789361,0.456182 L 0.791853,0.457909 L 0.794488,0.459578 L 0.797267,0.461189 L 0.800188,0.462741 L 0.803253,0.464234 L 0.806461,0.465669 L 0.809795,0.467016 L 0.813239,0.468246 L 0.816792,0.469358 L 0.820454,0.470354 L 0.824225,0.471232 L 0.828106,0.471994 L 0.832096,0.472638 L 0.836196,0.473165 L 0.840404,0.473575 L 0.844722,0.473868 L 0.849150,0.474043 L 0.853686,0.474102 L 0.858436,0.474048 L 0.863064,0.473886 L 0.867572,0.473616 L 0.871958,0.473238 L 0.876223,0.472752 L 0.880368,0.472158 L 0.884391,0.471456 L 0.888293,0.470645 L 0.892075,0.469727 L 0.895735,0.468701 L 0.899274,0.467567 L 0.902692,0.466325 L 0.905981,0.464978 L 0.909134,0.463529 L 0.912150,0.461979 L 0.915029,0.460328 L 0.917772,0.458575 L 0.920378,0.456720 L 0.922848,0.454764 L 0.925180,0.452707 L 0.927377,0.450548 L 0.929436,0.448287 L 0.931359,0.445925 L 0.933145,0.443462 L 0.934791,0.440905 L 0.936294,0.438264 L 0.937654,0.435538 L 0.938871,0.432728 L 0.939945,0.429833 L 0.940875,0.426853 L 0.941663,0.423789 L 0.942307,0.420640 L 0.942808,0.417407 L 0.943166,0.414089 L 0.943381,0.410686 L 0.943452,0.407199 L 0.943398,0.404878 L 0.943236,0.402600 L 0.942966,0.400365 L 0.942588,0.398173 L 0.942102,0.396024 L 0.941508,0.393917 L 0.940806,0.391854 L 0.939996,0.389833 L 0.939077,0.387856 L 0.938051,0.385921 L 0.936917,0.384030 L 0.935675,0.382181 L 0.934328,0.380374 L 0.932880,0.378607 L 0.931330,0.376881 L 0.929678,0.375195 L 0.927925,0.373550 L 0.926071,0.371944 L 0.924115,0.370379 L 0.922057,0.368855 L 0.919898,0.367371 L 0.917638,0.365927 L 0.915275,0.364523 L 0.912812,0.363160 L 0.910237,0.361832 L 0.907541,0.360536 L 0.904724,0.359271 L 0.901786,0.358037 L 0.898727,0.356835 L 0.895547,0.355664 L 0.892246,0.354524 L 0.888824,0.353415 L 0.885281,0.352337 L 0.881617,0.351291 L 0.877832,0.350276 L 0.873926,0.349292 L 0.870644,0.348490 L 0.867481,0.347710 L 0.864439,0.346950 L 0.861516,0.346210 L 0.858713,0.345492 L 0.856029,0.344794 L 0.853465,0.344118 L 0.851021,0.343462 L 0.848697,0.342827 L 0.846492,0.342212 L 0.844407,0.341619 L 0.842442,0.341046 L 0.840569,0.340472 L 0.838762,0.339872 L 0.837019,0.339248 L 0.835342,0.338600 L 0.833729,0.337926 L 0.832182,0.337228 L 0.830700,0.336505 L 0.829282,0.335757 L 0.827930,0.334985 L 0.826643,0.334188 L 0.825421,0.333366 L 0.824264,0.332520 L 0.823187,0.331640 L 0.822203,0.330721 L 0.821313,0.329761 L 0.820516,0.328761 L 0.819813,0.327721 L 0.819204,0.326640 L 0.818689,0.325519 L 0.818267,0.324357 L 0.817939,0.323155 L 0.817705,0.321913 L 0.817565,0.320631 L 0.817518,0.319308 L 0.817582,0.317860 L 0.817773,0.316452 L 0.818092,0.315085 L 0.818538,0.313758 L 0.819112,0.312472 L 0.819813,0.311226 L 0.820642,0.310020 L 0.821599,0.308855 L 0.822683,0.307730 L 0.823895,0.306645 L 0.825234,0.305601 L 0.826700,0.304597 L 0.828264,0.303654 L 0.829892,0.302793 L 0.831585,0.302014 L 0.833343,0.301317 L 0.835166,0.300702 L 0.837055,0.300169 L 0.839008,0.299718 L 0.841026,0.299349 L 0.843110,0.299062 L 0.845259,0.298857 L 0.847472,0.298734 L 0.849751,0.298693 L 0.851961,0.298725 L 0.854093,0.298818 L 0.856146,0.298974 L 0.858122,0.299193 L 0.860019,0.299474 L 0.861838,0.299818 L 0.863580,0.300224 L 0.865243,0.300692 L 0.866828,0.301223 L 0.868335,0.301817 L 0.869764,0.302473 L 0.871115,0.303191 L 0.872412,0.303961 L 0.873681,0.304774 L 0.874921,0.305627 L 0.876133,0.306523 L 0.877316,0.307460 L 0.878470,0.308438 L 0.879596,0.309459 L 0.880693,0.310521 L 0.881762,0.311624 L 0.882802,0.312769 L 0.883813,0.313956 L 0.884795,0.315185 L 0.885971,0.316653 L 0.887125,0.318058 L 0.888256,0.319401 L 0.889366,0.320682 L 0.890453,0.321900 L 0.891518,0.323056 L 0.892561,0.324149 L 0.893582,0.325180 L 0.894581,0.326148 L 0.895558,0.327054 L 0.896512,0.327897 L 0.897445,0.328678 L 0.898383,0.329396 L 0.899353,0.330052 L 0.900356,0.330645 L 0.901391,0.331176 L 0.902459,0.331645 L 0.903559,0.332051 L 0.904692,0.332395 L 0.905857,0.332676 L 0.907055,0.332894 L 0.908286,0.333050 L 0.909549,0.333144 L 0.910844,0.333175 L 0.912621,0.333136 L 0.914329,0.333019 L 0.915968,0.332824 L 0.917539,0.332551 L 0.919040,0.332199 L 0.920472,0.331770 L 0.921835,0.331262 L 0.923129,0.330677 L 0.924355,0.330013 L 0.925511,0.329271 L 0.926598,0.328451 L 0.927617,0.327553 L 0.928560,0.326594 L 0.929421,0.325591 L 0.930199,0.324543 L 0.930896,0.323451 L 0.931511,0.322315 L 0.932044,0.321135 L 0.932495,0.319910 L 0.932864,0.318641 L 0.933151,0.317328 L 0.933356,0.315971 L 0.933479,0.314569 L 0.933520,0.313123 L 0.933482,0.311778 L 0.933366,0.310427 L 0.933174,0.309071 L 0.932906,0.307710 L 0.932560,0.306343 L 0.932138,0.304971 L 0.931639,0.303594 L 0.931063,0.302212 L 0.930410,0.300825 L 0.929681,0.299433 L 0.928875,0.298035 L 0.927991,0.296632 L 0.927035,0.295237 L 0.926008,0.293863 L 0.924911,0.292509 L 0.923744,0.291176 L 0.922506,0.289865 L 0.921198,0.288574 L 0.919820,0.287303 L 0.918372,0.286054 L 0.916853,0.284826 L 0.915264,0.283618 L 0.913605,0.282431 L 0.911875,0.281265 L 0.910074,0.280129 L 0.908200,0.279032 L 0.906253,0.277974 L 0.904233,0.276955 L 0.902140,0.275975 L 0.899975,0.275034 L 0.897736,0.274132 L 0.895425,0.273269 L 0.893041,0.272445 L 0.890584,0.271661 L 0.888054,0.270915 L 0.885451,0.270208 L 0.882784,0.269550 L 0.880061,0.268948 L 0.877282,0.268404 L 0.874447,0.267918 L 0.871555,0.267488 L 0.868608,0.267116 L 0.865605,0.266801 L 0.862546,0.266543 L 0.859432,0.266343 L 0.856261,0.266200 L 0.853034,0.266114 L 0.849751,0.266085 L 0.845586,0.266142 L 0.841524,0.266312 L 0.837564,0.266595 L 0.833707,0.266991 L 0.829953,0.267501 L 0.826302,0.268123 L 0.822754,0.268859 L 0.819309,0.269708 L 0.815966,0.270671 L 0.812726,0.271746 L 0.809589,0.272935 L 0.806555,0.274237 L 0.803632,0.275634 L 0.800831,0.277108 L 0.798151,0.278659 L 0.795592,0.280286 L 0.793153,0.281990 L 0.790836,0.283771 L 0.788640,0.285629 L 0.786565,0.287564 L 0.784611,0.289575 L 0.782778,0.291663 L 0.781066,0.293828 L 0.779475,0.296070 L 0.778008,0.298362 L 0.776669,0.300677 L 0.775458,0.303015 L 0.774374,0.305377 L 0.773417,0.307763 L 0.772588,0.310172 L 0.771887,0.312604 L 0.771313,0.315060 L 0.770866,0.317539 L 0.770548,0.320042 L 0.770356,0.322568 L 0.770292,0.325117 L 0.770361,0.327953 L 0.770568,0.330713 L 0.770913,0.333398 L 0.771396,0.336007 L 0.772017,0.338541 L 0.772775,0.340999 L 0.773672,0.343382 L 0.774707,0.345690 L 0.775879,0.347922 L 0.777190,0.350078 L 0.778638,0.352159 L 0.780225,0.354164 L 0.781926,0.356100 L 0.783720,0.357972 L 0.785607,0.359781 L 0.787586,0.361525 L 0.789657,0.363206 L 0.791820,0.364823 L 0.794076,0.366376 L 0.796425,0.367866 L 0.798865,0.369291 L 0.801399,0.370653 L 0.804024,0.371951 L 0.806742,0.373186 L 0.809575,0.374384 L 0.812544,0.375573 L 0.815650,0.376752 L 0.818892,0.377923 L 0.822271,0.379084 L 0.825787,0.380237 L 0.829439,0.381380 L 0.833228,0.382514 L 0.837154,0.383639 L 0.841216,0.384755 L 0.845415,0.385862 L 0.849751,0.386960 L 0.853563,0.387901 L 0.857192,0.388850 L 0.860638,0.389806 L 0.863900,0.390770 L 0.866978,0.391743 L 0.869873,0.392723 L 0.872585,0.393710 L 0.875113,0.394706 L 0.877457,0.395709 L 0.879618,0.396720 L 0.881596,0.397739 L 0.883390,0.398766 L 0.885021,0.399848 L 0.886511,0.401031 L 0.887858,0.402315 L 0.889064,0.403701 L 0.890128,0.405189 L 0.891050,0.406778 L 0.891830,0.408468 L 0.892468,0.410260 L 0.892965,0.412154 L 0.893319,0.414149 L 0.893532,0.416245 L 0.893603,0.418444 L 0.893535,0.419898 L 0.893330,0.421325 L 0.892988,0.422724 L 0.892510,0.424097 L 0.891895,0.425442 L 0.891144,0.426759 L 0.890255,0.428050 L 0.889230,0.429313 L 0.888069,0.430549 L 0.886771,0.431757 L 0.885336,0.432938 L 0.883765,0.434092 L 0.882086,0.435184 L 0.880331,0.436182 L 0.878500,0.437084 L 0.876591,0.437892 L 0.874606,0.438604 L 0.872544,0.439222 L 0.870405,0.439744 L 0.868189,0.440172 L 0.865897,0.440504 L 0.863528,0.440742 L 0.861082,0.440884 L 0.858559,0.440932 L 0.855460,0.440885 L 0.852471,0.440744 L 0.849593,0.440510 L 0.846826,0.440182 L 0.844169,0.439761 L 0.841622,0.439245 L 0.839187,0.438636 L 0.836862,0.437933 L 0.834648,0.437137 L 0.832544,0.436247 L 0.830551,0.435263 L 0.828668,0.434185 L 0.826863,0.433013 L 0.825100,0.431744 L 0.823380,0.430379 L 0.821703,0.428917 L 0.820069,0.427359 L 0.818478,0.425705 L 0.816930,0.423955 L 0.815425,0.422108 L 0.813963,0.420165 L 0.812544,0.418126 L 0.811168,0.415990 L 0.809834,0.413758 L 0.809176,0.412594 L 0.808512,0.411473 L 0.807843,0.410397 L 0.807169,0.409365 L 0.806490,0.408377 L 0.805805,0.407434 L 0.805115,0.406534 L 0.804420,0.405679 L 0.803720,0.404869 L 0.803015,0.404102 L 0.802304,0.403380 L 0.801589,0.402702 L 0.800844,0.402073 L 0.800048,0.401499 L 0.799199,0.400980 L 0.798299,0.400515 L 0.797346,0.400105 L 0.796341,0.399750 L 0.795285,0.399450 L 0.794176,0.399204 L 0.793015,0.399012 L 0.791802,0.398876 L 0.790537,0.398794 L 0.789220,0.398766 L 0.787712,0.398808 L 0.786247,0.398933 L 0.784828,0.399141 L 0.783452,0.399433 L 0.782121,0.399807 Z M 2.542651,0.327928 L 2.543773,0.331141 L 2.544798,0.334409 L 2.545725,0.337732 L 2.546555,0.341109 L 2.547287,0.344541 L 2.547921,0.348027 L 2.548458,0.351568 L 2.548897,0.355164 L 2.549239,0.358814 L 2.549483,0.362520 L 2.549629,0.366279 L 2.549678,0.370094 L 2.549629,0.373879 L 2.549480,0.377616 L 2.549233,0.381303 L 2.548887,0.384940 L 2.548442,0.388528 L 2.547898,0.392067 L 2.547255,0.395556 L 2.546513,0.398995 L 2.545672,0.402385 L 2.544733,0.405726 L 2.543694,0.409017 L 2.542557,0.412259 L 2.541326,0.415439 L 2.540006,0.418542 L 2.538598,0.421571 L 2.537101,0.424524 L 2.535516,0.427401 L 2.533843,0.430203 L 2.532081,0.432929 L 2.530230,0.435580 L 2.528291,0.438156 L 2.526263,0.440656 L 2.524147,0.443080 L 2.521943,0.445429 L 2.519657,0.447696 L 2.517299,0.449872 L 2.514868,0.451959 L 2.512364,0.453956 L 2.509787,0.455863 L 2.507138,0.457681 L 2.504415,0.459409 L 2.501620,0.461046 L 2.498751,0.462594 L 2.495810,0.464053 L 2.492796,0.465421 L 2.489709,0.466700 L 2.486553,0.467882 L 2.483332,0.468961 L 2.480046,0.469938 L 2.476695,0.470812 L 2.473279,0.471583 L 2.469798,0.472251 L 2.466252,0.472817 L 2.462640,0.473280 L 2.458964,0.473639 L 2.455222,0.473896 L 2.451416,0.474051 L 2.447544,0.474102 L 2.443703,0.474050 L 2.439928,0.473894 L 2.436218,0.473634 L 2.432572,0.473269 L 2.428992,0.472801 L 2.425477,0.472228 L 2.422027,0.471551 L 2.418642,0.470770 L 2.415322,0.469885 L 2.412068,0.468896 L 2.408878,0.467803 L 2.405753,0.466606 L 2.402695,0.465312 L 2.399707,0.463928 L 2.396787,0.462454 L 2.393936,0.460890 L 2.391155,0.459237 L 2.388442,0.457493 L 2.385798,0.455660 L 2.383223,0.453738 L 2.380717,0.451725 L 2.378280,0.449623 L 2.375912,0.447430 L 2.373614,0.445148 L 2.371395,0.442786 L 2.369267,0.440354 L 2.367230,0.437851 L 2.365285,0.435278 L 2.363430,0.432635 L 2.361667,0.429922 L 2.359994,0.427138 L 2.358413,0.424284 L 2.356923,0.421360 L 2.355524,0.418365 L 2.354216,0.415301 L 2.352999,0.412166 L 2.351877,0.408967 L 2.350852,0.405713 L 2.349925,0.402403 L 2.349095,0.399037 L 2.348363,0.395615 L 2.347729,0.392137 L 2.347192,0.388603 L 2.346752,0.385013 L 2.346411,0.381367 L 2.346167,0.377665 L 2.346020,0.373907 L 2.345972,0.370094 L 2.346021,0.366248 L 2.346170,0.362457 L 2.346417,0.358721 L 2.346763,0.355039 L 2.347208,0.351412 L 2.347752,0.347840 L 2.348395,0.344322 L 2.349137,0.340859 L 2.349977,0.337451 L 2.350917,0.334097 L 2.351956,0.330798 L 2.353093,0.327553 L 2.354323,0.324375 L 2.355639,0.321275 L 2.357040,0.318254 L 2.358528,0.315310 L 2.360101,0.312444 L 2.361760,0.309656 L 2.363506,0.306947 L 2.365337,0.304315 L 2.367254,0.301762 L 2.369256,0.299287 L 2.371345,0.296890 L 2.373520,0.294571 L 2.375776,0.292334 L 2.378111,0.290185 L 2.380524,0.288123 L 2.383015,0.286148 L 2.385584,0.284260 L 2.388231,0.282460 L 2.390956,0.280746 L 2.393759,0.279120 L 2.396641,0.277581 L 2.399600,0.276130 L 2.402637,0.274765 L 2.405753,0.273488 L 2.408935,0.272305 L 2.412172,0.271226 L 2.415463,0.270249 L 2.418809,0.269375 L 2.422209,0.268604 L 2.425665,0.267936 L 2.429174,0.267371 L 2.432739,0.266908 L 2.436358,0.266548 L 2.440032,0.266291 L 2.443761,0.266137 L 2.447544,0.266085 L 2.451387,0.266137 L 2.455170,0.266294 L 2.458893,0.266554 L 2.462557,0.266918 L 2.466160,0.267387 L 2.469704,0.267959 L 2.473188,0.268636 L 2.476612,0.269417 L 2.479976,0.270302 L 2.483280,0.271291 L 2.486525,0.272384 L 2.489709,0.273581 L 2.492826,0.274875 L 2.495868,0.276257 L 2.498833,0.277728 L 2.501724,0.279287 L 2.504539,0.280934 L 2.507278,0.282670 L 2.509942,0.284495 L 2.512531,0.286408 L 2.515044,0.288410 L 2.517481,0.290500 L 2.519843,0.292678 L 2.522130,0.294945 L 2.524334,0.297293 L 2.526448,0.299714 L 2.528472,0.302207 L 2.530407,0.304774 L 2.532252,0.307413 L 2.534007,0.310125 L 2.535672,0.312910 L 2.537247,0.315768 L 2.538733,0.318699 L 2.540128,0.321702 L 2.541434,0.324779 L 2.542651,0.327928 Z M 0.597065,0.429591 L 0.595903,0.428112 L 0.594863,0.426585 L 0.593945,0.425010 L 0.593150,0.423386 L 0.592477,0.421715 L 0.591927,0.419995 L 0.591499,0.418227 L 0.591193,0.416411 L 0.591009,0.414546 L 0.590948,0.412634 L 0.591000,0.410794 L 0.591157,0.409024 L 0.591417,0.407322 L 0.591781,0.405690 L 0.592250,0.404126 L 0.592822,0.402631 L 0.593499,0.401206 L 0.594280,0.399849 L 0.595165,0.398561 L 0.596154,0.397343 L 0.597247,0.396193 L 0.598444,0.395112 L 0.599699,0.394094 L 0.600964,0.393134 L 0.602239,0.392231 L 0.603525,0.391385 L 0.604821,0.390596 L 0.606128,0.389865 L 0.607445,0.389191 L 0.608772,0.388574 L 0.610110,0.388014 L 0.611458,0.387512 L 0.612817,0.387067 L 0.614186,0.386679 L 0.615652,0.386303 L 0.617302,0.385893 L 0.619135,0.385449 L 0.621151,0.384971 L 0.623351,0.384460 L 0.625735,0.383915 L 0.628302,0.383336 L 0.631052,0.382723 L 0.633987,0.382076 L 0.637104,0.381395 L 0.640405,0.380681 L 0.643889,0.379932 L 0.647395,0.379170 L 0.650758,0.378415 L 0.653980,0.377666 L 0.657060,0.376923 L 0.659998,0.376188 L 0.662794,0.375458 L 0.665448,0.374735 L 0.667960,0.374019 L 0.670331,0.373309 L 0.672560,0.372605 L 0.674646,0.371909 L 0.676591,0.371218 L 0.676591,0.378527 L 0.676543,0.382858 L 0.676399,0.386981 L 0.676158,0.390895 L 0.675821,0.394602 L 0.675387,0.398100 L 0.674858,0.401390 L 0.674232,0.404472 L 0.673509,0.407345 L 0.672691,0.410010 L 0.671776,0.412467 L 0.670765,0.414716 L 0.669657,0.416757 L 0.668610,0.418479 L 0.667468,0.420148 L 0.666231,0.421764 L 0.664899,0.423326 L 0.663472,0.424835 L 0.661950,0.426291 L 0.660333,0.427693 L 0.658621,0.429042 L 0.656814,0.430338 L 0.654912,0.431580 L 0.652915,0.432769 L 0.650823,0.433904 L 0.648668,0.434967 L 0.646479,0.435937 L 0.644258,0.436815 L 0.642005,0.437600 L 0.639719,0.438293 L 0.637401,0.438894 L 0.635050,0.439402 L 0.632666,0.439818 L 0.630250,0.440141 L 0.627802,0.440372 L 0.625320,0.440511 L 0.622807,0.440557 L 0.620471,0.440500 L 0.618210,0.440331 L 0.616025,0.440048 L 0.613915,0.439651 L 0.611881,0.439142 L 0.609923,0.438519 L 0.608040,0.437783 L 0.606232,0.436934 L 0.604500,0.435971 L 0.602843,0.434896 L 0.601262,0.433707 L 0.599756,0.432405 L 0.598349,0.431022 L 0.597065,0.429591 Z M 2.689785,0.291970 L 2.690369,0.290146 L 2.690917,0.288470 L 2.691431,0.286940 L 2.691909,0.285557 L 2.692352,0.284321 L 2.692760,0.283233 L 2.693179,0.282222 L 2.693655,0.281218 L 2.694189,0.280223 L 2.694780,0.279235 L 2.695428,0.278255 L 2.696133,0.277283 L 2.696896,0.276318 L 2.697716,0.275362 L 2.698593,0.274413 L 2.699527,0.273472 L 2.700519,0.272539 L 2.701568,0.271614 L 2.702679,0.270731 L 2.703856,0.269925 L 2.705099,0.269195 L 2.706409,0.268542 L 2.707785,0.267967 L 2.709228,0.267467 L 2.710737,0.267045 L 2.712312,0.266700 L 2.713954,0.266431 L 2.715662,0.266239 L 2.717437,0.266124 L 2.719277,0.266085 L 2.721148,0.266124 L 2.722950,0.266239 L 2.724683,0.266431 L 2.726347,0.266700 L 2.727941,0.267045 L 2.729467,0.267467 L 2.730924,0.267967 L 2.732312,0.268542 L 2.733631,0.269195 L 2.734881,0.269925 L 2.736062,0.270731 L 2.737174,0.271614 L 2.738225,0.272542 L 2.739223,0.273483 L 2.740167,0.274436 L 2.741058,0.275403 L 2.741895,0.276383 L 2.742679,0.277376 L 2.743410,0.278382 L 2.744087,0.279401 L 2.744711,0.280433 L 2.745282,0.281478 L 2.745799,0.282536 L 2.746263,0.283607 L 2.746715,0.284751 L 2.747195,0.286026 L 2.747704,0.287432 L 2.748241,0.288969 L 2.748808,0.290638 L 2.749402,0.292439 L 2.750026,0.294371 L 2.750678,0.296434 L 2.751358,0.298629 L 2.752067,0.300955 L 2.752805,0.303413 L 2.753572,0.306002 L 2.783931,0.412259 L 2.817664,0.297944 L 2.818217,0.295930 L 2.818752,0.294011 L 2.819268,0.292187 L 2.819767,0.290458 L 2.820247,0.288824 L 2.820709,0.287285 L 2.821153,0.285841 L 2.821578,0.284492 L 2.821986,0.283239 L 2.822375,0.282080 L 2.822746,0.281016 L 2.823098,0.280047 L 2.823461,0.279135 L 2.823864,0.278240 L 2.824305,0.277365 L 2.824785,0.276507 L 2.825304,0.275668 L 2.825863,0.274846 L 2.826460,0.274043 L 2.827096,0.273259 L 2.827772,0.272492 L 2.828486,0.271744 L 2.829240,0.271014 L 2.830032,0.270302 L 2.830874,0.269628 L 2.831776,0.269014 L 2.832738,0.268457 L 2.833759,0.267959 L 2.834841,0.267520 L 2.835982,0.267140 L 2.837183,0.266817 L 2.838445,0.266554 L 2.839765,0.266349 L 2.841146,0.266203 L 2.842587,0.266115 L 2.844087,0.266085 L 2.845601,0.266130 L 2.847081,0.266262 L 2.848526,0.266484 L 2.849938,0.266793 L 2.851317,0.267192 L 2.852661,0.267678 L 2.853971,0.268254 L 2.855248,0.268917 L 2.856491,0.269669 L 2.857700,0.270510 L 2.858875,0.271439 L 2.860017,0.272457 L 2.861094,0.273535 L 2.862078,0.274643 L 2.862968,0.275783 L 2.863765,0.276955 L 2.864467,0.278157 L 2.865076,0.279391 L 2.865592,0.280656 L 2.866013,0.281952 L 2.866341,0.283280 L 2.866576,0.284638 L 2.866716,0.286028 L 2.866763,0.287449 L 2.866723,0.288817 L 2.866602,0.290297 L 2.866400,0.291888 L 2.866118,0.293592 L 2.865754,0.295407 L 2.865311,0.297335 L 2.864786,0.299374 L 2.864181,0.301525 L 2.863495,0.303788 L 2.862729,0.306163 L 2.861881,0.308650 L 2.860954,0.311249 L 2.819163,0.433811 L 2.818274,0.436343 L 2.817419,0.438756 L 2.816598,0.441049 L 2.815811,0.443222 L 2.815057,0.445276 L 2.814337,0.447210 L 2.813651,0.449024 L 2.813000,0.450718 L 2.812381,0.452293 L 2.811797,0.453748 L 2.811246,0.455083 L 2.810730,0.456299 L 2.810206,0.457444 L 2.809634,0.458568 L 2.809014,0.459672 L 2.808346,0.460755 L 2.807629,0.461817 L 2.806865,0.462858 L 2.806052,0.463878 L 2.805191,0.464878 L 2.804282,0.465856 L 2.803325,0.466814 L 2.802319,0.467751 L 2.801266,0.468667 L 2.800155,0.469535 L 2.798978,0.470328 L 2.797735,0.471045 L 2.796425,0.471687 L 2.795048,0.472253 L 2.793606,0.472743 L 2.792097,0.473158 L 2.790522,0.473498 L 2.788880,0.473762 L 2.787172,0.473951 L 2.785397,0.474064 L 2.783556,0.474102 L 2.781654,0.474062 L 2.779821,0.473941 L 2.778057,0.473739 L 2.776362,0.473457 L 2.774736,0.473093 L 2.773179,0.472650 L 2.771691,0.472125 L 2.770272,0.471520 L 2.768921,0.470834 L 2.767640,0.470068 L 2.766428,0.469220 L 2.765285,0.468293 L 2.764200,0.467306 L 2.763163,0.466283 L 2.762175,0.465224 L 2.761235,0.464128 L 2.760343,0.462996 L 2.759499,0.461827 L 2.758703,0.460622 L 2.757955,0.459381 L 2.757256,0.458103 L 2.756604,0.456788 L 2.756001,0.455437 L 2.755446,0.454050 L 2.754911,0.452609 L 2.754368,0.451098 L 2.753818,0.449517 L 2.753260,0.447866 L 2.752694,0.446144 L 2.752120,0.444352 L 2.751538,0.442490 L 2.750948,0.440557 L 2.750351,0.438554 L 2.749746,0.436481 L 2.749133,0.434338 L 2.748512,0.432124 L 2.719277,0.332426 L 2.690980,0.432124 L 2.690036,0.435520 L 2.689080,0.438774 L 2.688110,0.441886 L 2.687127,0.444857 L 2.686132,0.447685 L 2.685123,0.450372 L 2.684102,0.452917 L 2.683067,0.455320 L 2.682019,0.457581 L 2.680959,0.459701 L 2.679885,0.461678 L 2.678798,0.463514 L 2.677636,0.465205 L 2.676336,0.466749 L 2.674898,0.468146 L 2.673322,0.469396 L 2.671608,0.470499 L 2.669756,0.471455 L 2.667766,0.472264 L 2.665639,0.472926 L 2.663373,0.473440 L 2.660969,0.473808 L 2.658427,0.474029 L 2.655748,0.474102 L 2.654360,0.474079 L 2.653007,0.474011 L 2.651690,0.473897 L 2.650407,0.473738 L 2.649160,0.473533 L 2.647947,0.473282 L 2.646770,0.472986 L 2.645628,0.472644 L 2.644521,0.472257 L 2.643450,0.471825 L 2.642413,0.471346 L 2.641412,0.470822 L 2.640441,0.470256 L 2.639499,0.469651 L 2.638583,0.469007 L 2.637695,0.468324 L 2.636834,0.467602 L 2.636000,0.466840 L 2.635194,0.466040 L 2.634415,0.465200 L 2.633664,0.464322 L 2.632940,0.463404 L 2.632243,0.462448 L 2.631573,0.461452 L 2.630924,0.460422 L 2.630287,0.459360 L 2.629664,0.458267 L 2.629053,0.457142 L 2.628456,0.455986 L 2.627872,0.454800 L 2.627301,0.453581 L 2.626742,0.452332 L 2.626197,0.451052 L 2.625665,0.449740 L 2.625145,0.448397 L 2.624639,0.447022 L 2.624149,0.445657 L 2.623676,0.444339 L 2.623222,0.443069 L 2.622786,0.441848 L 2.622368,0.440675 L 2.621969,0.439550 L 2.621587,0.438473 L 2.621224,0.437444 L 2.620879,0.436463 L 2.620553,0.435531 L 2.620244,0.434647 L 2.619954,0.433811 L 2.578538,0.311249 L 2.577550,0.308450 L 2.576649,0.305799 L 2.575833,0.303296 L 2.575102,0.300942 L 2.574458,0.298736 L 2.573900,0.296679 L 2.573428,0.294770 L 2.573041,0.293009 L 2.572740,0.291396 L 2.572526,0.289932 L 2.572397,0.288617 L 2.572354,0.287449 L 2.572399,0.286087 L 2.572536,0.284748 L 2.572764,0.283432 L 2.573083,0.282140 L 2.573493,0.280871 L 2.573994,0.279625 L 2.574586,0.278403 L 2.575269,0.277205 L 2.576043,0.276029 L 2.576909,0.274878 L 2.577865,0.273749 L 2.578913,0.272644 L 2.580027,0.271597 L 2.581183,0.270640 L 2.582380,0.269775 L 2.583619,0.269001 L 2.584899,0.268317 L 2.586222,0.267725 L 2.587586,0.267224 L 2.588991,0.266814 L 2.590438,0.266495 L 2.591927,0.266268 L 2.593458,0.266131 L 2.595030,0.266085 L 2.597096,0.266135 L 2.599048,0.266286 L 2.600886,0.266536 L 2.602609,0.266887 L 2.604217,0.267338 L 2.605711,0.267889 L 2.607091,0.268540 L 2.608356,0.269292 L 2.609506,0.270144 L 2.610542,0.271096 L 2.611464,0.272148 L 2.612271,0.273300 L 2.613024,0.274574 L 2.613786,0.275989 L 2.614555,0.277546 L 2.615332,0.279245 L 2.616116,0.281086 L 2.616909,0.283069 L 2.617709,0.285193 L 2.618517,0.287460 L 2.619333,0.289868 L 2.620157,0.292418 L 2.620989,0.295110 L 2.621828,0.297944 L 2.655186,0.412259 L 2.685545,0.306002 L 2.686339,0.303296 L 2.687099,0.300737 L 2.687823,0.298324 L 2.688512,0.296059 L 2.689166,0.293941 L 2.689785,0.291970 Z M 0.988871,0.538160 L 0.988253,0.536431 L 0.987700,0.534591 L 0.987212,0.532641 L 0.986789,0.530580 L 0.986431,0.528409 L 0.986138,0.526127 L 0.985911,0.523734 L 0.985748,0.521231 L 0.985650,0.518617 L 0.985618,0.515893 L 0.985618,0.295133 L 0.985662,0.292748 L 0.985795,0.290466 L 0.986016,0.288287 L 0.986326,0.286210 L 0.986724,0.284237 L 0.987211,0.282366 L 0.987786,0.280598 L 0.988450,0.278933 L 0.989202,0.277370 L 0.990043,0.275911 L 0.990972,0.274554 L 0.991989,0.273300 L 0.993084,0.272148 L 0.994244,0.271096 L 0.995468,0.270144 L 0.996758,0.269292 L 0.998113,0.268540 L 0.999533,0.267889 L 1.001017,0.267338 L 1.002567,0.266887 L 1.004182,0.266536 L 1.005863,0.266286 L 1.007608,0.266135 L 1.009418,0.266085 L 1.011201,0.266137 L 1.012929,0.266291 L 1.014601,0.266548 L 1.016216,0.266908 L 1.017776,0.267371 L 1.019280,0.267936 L 1.020728,0.268604 L 1.022120,0.269375 L 1.023455,0.270249 L 1.024735,0.271226 L 1.025959,0.272305 L 1.027127,0.273488 L 1.028220,0.274766 L 1.029217,0.276135 L 1.030120,0.277593 L 1.030928,0.279141 L 1.031640,0.280779 L 1.032258,0.282507 L 1.032780,0.284324 L 1.033208,0.286231 L 1.033540,0.288228 L 1.033778,0.290315 L 1.033920,0.292492 L 1.033968,0.294758 L 1.033968,0.300942 L 1.036380,0.298041 L 1.038809,0.295271 L 1.041253,0.292632 L 1.043712,0.290125 L 1.046188,0.287749 L 1.048679,0.285505 L 1.051185,0.283392 L 1.053707,0.281411 L 1.056245,0.279561 L 1.058798,0.277842 L 1.061367,0.276255 L 1.063952,0.274800 L 1.066573,0.273468 L 1.069251,0.272251 L 1.071987,0.271151 L 1.074780,0.270167 L 1.077630,0.269298 L 1.080537,0.268545 L 1.083502,0.267908 L 1.086524,0.267387 L 1.089603,0.266981 L 1.092739,0.266692 L 1.095933,0.266518 L 1.099184,0.266460 L 1.103093,0.266545 L 1.106950,0.266799 L 1.110756,0.267222 L 1.114509,0.267814 L 1.118210,0.268575 L 1.121859,0.269505 L 1.125456,0.270605 L 1.129001,0.271874 L 1.132494,0.273312 L 1.135935,0.274919 L 1.139324,0.276696 L 1.142661,0.278641 L 1.145914,0.280750 L 1.149051,0.283014 L 1.152072,0.285435 L 1.154977,0.288011 L 1.157767,0.290744 L 1.160441,0.293634 L 1.162999,0.296679 L 1.165441,0.299880 L 1.167767,0.303238 L 1.169977,0.306752 L 1.172072,0.310422 L 1.174051,0.314248 L 1.175892,0.318212 L 1.177572,0.322296 L 1.179093,0.326499 L 1.180454,0.330822 L 1.181654,0.335265 L 1.182695,0.339828 L 1.183575,0.344511 L 1.184296,0.349313 L 1.184856,0.354235 L 1.185256,0.359276 L 1.185496,0.364438 L 1.185576,0.369719 L 1.185530,0.373628 L 1.185391,0.377483 L 1.185160,0.381285 L 1.184837,0.385034 L 1.184421,0.388729 L 1.183913,0.392371 L 1.183312,0.395960 L 1.182619,0.399495 L 1.181834,0.402977 L 1.180956,0.406406 L 1.179986,0.409781 L 1.178923,0.413103 L 1.177780,0.416353 L 1.176568,0.419516 L 1.175287,0.422590 L 1.173936,0.425575 L 1.172517,0.428472 L 1.171029,0.431281 L 1.169472,0.434001 L 1.167846,0.436632 L 1.166151,0.439175 L 1.164387,0.441629 L 1.162554,0.443995 L 1.160652,0.446273 L 1.158686,0.448463 L 1.156661,0.450567 L 1.154579,0.452586 L 1.152437,0.454518 L 1.150237,0.456365 L 1.147979,0.458126 L 1.145661,0.459801 L 1.143286,0.461390 L 1.140851,0.462893 L 1.138359,0.464310 L 1.135807,0.465642 L 1.133197,0.466887 L 1.130542,0.468039 L 1.127854,0.469092 L 1.125133,0.470044 L 1.122380,0.470895 L 1.119594,0.471647 L 1.116776,0.472298 L 1.113925,0.472849 L 1.111042,0.473300 L 1.108126,0.473651 L 1.105178,0.473902 L 1.102197,0.474052 L 1.099184,0.474102 L 1.095578,0.474041 L 1.092070,0.473857 L 1.088660,0.473552 L 1.085347,0.473123 L 1.082132,0.472573 L 1.079014,0.471900 L 1.075995,0.471105 L 1.073072,0.470187 L 1.070248,0.469148 L 1.067520,0.467985 L 1.064891,0.466701 L 1.062359,0.465294 L 1.059886,0.463769 L 1.057432,0.462129 L 1.054998,0.460375 L 1.052583,0.458506 L 1.050188,0.456523 L 1.047812,0.454425 L 1.045456,0.452212 L 1.043119,0.449885 L 1.040802,0.447444 L 1.038504,0.444888 L 1.036226,0.442218 L 1.033968,0.439433 L 1.033968,0.516268 L 1.033797,0.521655 L 1.033286,0.526575 L 1.032433,0.531025 L 1.031240,0.535008 L 1.029705,0.538522 L 1.027830,0.541567 L 1.025614,0.544144 L 1.023057,0.546252 L 1.020158,0.547892 L 1.016919,0.549063 L 1.013339,0.549766 L 1.009418,0.550000 L 1.007081,0.549939 L 1.004879,0.549758 L 1.002812,0.549455 L 1.000881,0.549032 L 0.999085,0.548487 L 0.997424,0.547821 L 0.995899,0.547035 L 0.994509,0.546127 L 0.993254,0.545098 L 0.992135,0.543948 L 0.991151,0.542678 L 0.990303,0.541286 L 0.989555,0.539778 L 0.988871,0.538160 Z M 2.107422,0.395556 L 2.108064,0.392067 L 2.108608,0.388528 L 2.109053,0.384940 L 2.109400,0.381303 L 2.109647,0.377616 L 2.109795,0.373879 L 2.109845,0.370094 L 2.109796,0.366279 L 2.109649,0.362520 L 2.109405,0.358814 L 2.109064,0.355164 L 2.108625,0.351568 L 2.108088,0.348027 L 2.107453,0.344541 L 2.106721,0.341109 L 2.105892,0.337732 L 2.104964,0.334409 L 2.103940,0.331141 L 2.102817,0.327928 L 2.101601,0.324779 L 2.100295,0.321702 L 2.098899,0.318699 L 2.097414,0.315768 L 2.095838,0.312910 L 2.094173,0.310125 L 2.092418,0.307413 L 2.090574,0.304774 L 2.088639,0.302207 L 2.086615,0.299714 L 2.084501,0.297293 L 2.082297,0.294945 L 2.080010,0.292678 L 2.077648,0.290500 L 2.075210,0.288410 L 2.072697,0.286408 L 2.070109,0.284495 L 2.067445,0.282670 L 2.064705,0.280934 L 2.061891,0.279287 L 2.059000,0.277728 L 2.056034,0.276257 L 2.052993,0.274875 L 2.049876,0.273581 L 2.046691,0.272384 L 2.043447,0.271291 L 2.040143,0.270302 L 2.036779,0.269417 L 2.033355,0.268636 L 2.029871,0.267959 L 2.026327,0.267387 L 2.022723,0.266918 L 2.019060,0.266554 L 2.015337,0.266294 L 2.011553,0.266137 L 2.007710,0.266085 L 2.003927,0.266137 L 2.000199,0.266291 L 1.996525,0.266548 L 1.992906,0.266908 L 1.989341,0.267371 L 1.985831,0.267936 L 1.982376,0.268604 L 1.978975,0.269375 L 1.975629,0.270249 L 1.972338,0.271226 L 1.969102,0.272305 L 1.965920,0.273488 L 1.962804,0.274765 L 1.959767,0.276130 L 1.956807,0.277581 L 1.953926,0.279120 L 1.951123,0.280746 L 1.948398,0.282460 L 1.945751,0.284260 L 1.943182,0.286148 L 1.940691,0.288123 L 1.938278,0.290185 L 1.935943,0.292334 L 1.933687,0.294571 L 1.931512,0.296890 L 1.929423,0.299287 L 1.927420,0.301762 L 1.925503,0.304315 L 1.923672,0.306947 L 1.921927,0.309656 L 1.920268,0.312444 L 1.918694,0.315310 L 1.917207,0.318254 L 1.915805,0.321275 L 1.914489,0.324375 L 1.913260,0.327553 L 1.912122,0.330798 L 1.911084,0.334097 L 1.910144,0.337451 L 1.909303,0.340859 L 1.908562,0.344322 L 1.907919,0.347840 L 1.907375,0.351412 L 1.906930,0.355039 L 1.906583,0.358721 L 1.906336,0.362457 L 1.906188,0.366248 L 1.906138,0.370094 L 1.906187,0.373907 L 1.906334,0.377665 L 1.906578,0.381367 L 1.906919,0.385013 L 1.907358,0.388603 L 1.907895,0.392137 L 1.908530,0.395615 L 1.909262,0.399037 L 1.910091,0.402403 L 1.911019,0.405713 L 1.912043,0.408967 L 1.913166,0.412166 L 1.914383,0.415301 L 1.915691,0.418365 L 1.917090,0.421360 L 1.918580,0.424284 L 1.920161,0.427138 L 1.921833,0.429922 L 1.923597,0.432635 L 1.925451,0.435278 L 1.927397,0.437851 L 1.929434,0.440354 L 1.931561,0.442786 L 1.933780,0.445148 L 1.936079,0.447430 L 1.938447,0.449623 L 1.940884,0.451725 L 1.943390,0.453738 L 1.945965,0.455660 L 1.948608,0.457493 L 1.951321,0.459237 L 1.954103,0.460890 L 1.956954,0.462454 L 1.959873,0.463928 L 1.962862,0.465312 L 1.965920,0.466606 L 1.969044,0.467803 L 1.972234,0.468896 L 1.975489,0.469885 L 1.978809,0.470770 L 1.982194,0.471551 L 1.985644,0.472228 L 1.989159,0.472801 L 1.992739,0.473269 L 1.996384,0.473634 L 2.000095,0.473894 L 2.003870,0.474050 L 2.007710,0.474102 L 2.011582,0.474051 L 2.015389,0.473896 L 2.019130,0.473639 L 2.022807,0.473280 L 2.026418,0.472817 L 2.029965,0.472251 L 2.033446,0.471583 L 2.036862,0.470812 L 2.040213,0.469938 L 2.043499,0.468961 L 2.046720,0.467882 L 2.049876,0.466700 L 2.052963,0.465421 L 2.055977,0.464053 L 2.058918,0.462594 L 2.061786,0.461046 L 2.064582,0.459409 L 2.067304,0.457681 L 2.069954,0.455863 L 2.072531,0.453956 L 2.075035,0.451959 L 2.077466,0.449872 L 2.079824,0.447696 L 2.082109,0.445429 L 2.084314,0.443080 L 2.086430,0.440656 L 2.088457,0.438156 L 2.090397,0.435580 L 2.092247,0.432929 L 2.094009,0.430203 L 2.095683,0.427401 L 2.097268,0.424524 L 2.098765,0.421571 L 2.100173,0.418542 L 2.101492,0.415439 L 2.102723,0.412259 L 2.103861,0.409017 L 2.104899,0.405726 L 2.105839,0.402385 L 2.106680,0.398995 L 2.107422,0.395556 Z M 2.458571,0.305030 L 2.461984,0.305877 L 2.465266,0.306966 L 2.468416,0.308298 L 2.471434,0.309871 L 2.474322,0.311687 L 2.477077,0.313744 L 2.479702,0.316044 L 2.482194,0.318585 L 2.484556,0.321369 L 2.486756,0.324370 L 2.488764,0.327564 L 2.490582,0.330950 L 2.492208,0.334529 L 2.493643,0.338300 L 2.494886,0.342264 L 2.495938,0.346421 L 2.496799,0.350770 L 2.497469,0.355312 L 2.497947,0.360047 L 2.498234,0.364974 L 2.498330,0.370094 L 2.498234,0.375154 L 2.497947,0.380029 L 2.497469,0.384717 L 2.496799,0.389219 L 2.495939,0.393535 L 2.494886,0.397665 L 2.493643,0.401609 L 2.492208,0.405367 L 2.490582,0.408939 L 2.488765,0.412324 L 2.486756,0.415524 L 2.484556,0.418537 L 2.482194,0.421336 L 2.479701,0.423891 L 2.477077,0.426203 L 2.474321,0.428272 L 2.471434,0.430097 L 2.468416,0.431679 L 2.465266,0.433017 L 2.461984,0.434112 L 2.458571,0.434964 L 2.455027,0.435573 L 2.451351,0.435938 L 2.447544,0.436059 L 2.445011,0.436004 L 2.442533,0.435838 L 2.440112,0.435562 L 2.437747,0.435174 L 2.435437,0.434677 L 2.433184,0.434068 L 2.430987,0.433349 L 2.428845,0.432520 L 2.426760,0.431579 L 2.424730,0.430528 L 2.422757,0.429367 L 2.420839,0.428095 L 2.418986,0.426719 L 2.417205,0.425245 L 2.415498,0.423673 L 2.413863,0.422004 L 2.412302,0.420238 L 2.410813,0.418373 L 2.409397,0.416411 L 2.408054,0.414352 L 2.406784,0.412195 L 2.405586,0.409940 L 2.404462,0.407588 L 2.403411,0.405138 L 2.402438,0.402604 L 2.401550,0.400000 L 2.400746,0.397326 L 2.400027,0.394581 L 2.399392,0.391766 L 2.398843,0.388881 L 2.398377,0.385925 L 2.397997,0.382900 L 2.397701,0.379803 L 2.397489,0.376637 L 2.397362,0.373401 L 2.397320,0.370094 L 2.397363,0.366756 L 2.397492,0.363488 L 2.397706,0.360290 L 2.398007,0.357163 L 2.398394,0.354106 L 2.398866,0.351119 L 2.399424,0.348203 L 2.400068,0.345357 L 2.400799,0.342581 L 2.401615,0.339875 L 2.402516,0.337240 L 2.403504,0.334675 L 2.404571,0.332196 L 2.405711,0.329820 L 2.406924,0.327547 L 2.408210,0.325377 L 2.409569,0.323310 L 2.411000,0.321346 L 2.412505,0.319484 L 2.414082,0.317725 L 2.415732,0.316069 L 2.417455,0.314516 L 2.419251,0.313065 L 2.421120,0.311718 L 2.423050,0.310476 L 2.425030,0.309341 L 2.427058,0.308315 L 2.429137,0.307397 L 2.431265,0.306587 L 2.433442,0.305885 L 2.435669,0.305291 L 2.437945,0.304805 L 2.440270,0.304427 L 2.442645,0.304157 L 2.445070,0.303995 L 2.447544,0.303941 L 2.451351,0.304062 L 2.455027,0.304425 L 2.458571,0.305030 Z M 2.058114,0.380029 L 2.057636,0.384717 L 2.056966,0.389219 L 2.056105,0.393535 L 2.055053,0.397665 L 2.053809,0.401609 L 2.052375,0.405367 L 2.050749,0.408939 L 2.048931,0.412324 L 2.046922,0.415524 L 2.044722,0.418537 L 2.042361,0.421336 L 2.039868,0.423891 L 2.037244,0.426203 L 2.034488,0.428272 L 2.031601,0.430097 L 2.028582,0.431679 L 2.025432,0.433017 L 2.022151,0.434112 L 2.018738,0.434964 L 2.015194,0.435573 L 2.011518,0.435938 L 2.007710,0.436059 L 2.005177,0.436004 L 2.002700,0.435838 L 2.000279,0.435562 L 1.997913,0.435174 L 1.995604,0.434677 L 1.993351,0.434068 L 1.991153,0.433349 L 1.989012,0.432520 L 1.986926,0.431579 L 1.984897,0.430528 L 1.982923,0.429367 L 1.981006,0.428095 L 1.979152,0.426719 L 1.977372,0.425245 L 1.975665,0.423673 L 1.974030,0.422004 L 1.972468,0.420238 L 1.970980,0.418373 L 1.969564,0.416411 L 1.968221,0.414352 L 1.966950,0.412195 L 1.965753,0.409940 L 1.964629,0.407588 L 1.963577,0.405138 L 1.962604,0.402604 L 1.961716,0.400000 L 1.960913,0.397326 L 1.960194,0.394581 L 1.959559,0.391766 L 1.959009,0.388881 L 1.958544,0.385925 L 1.958163,0.382900 L 1.957867,0.379803 L 1.957656,0.376637 L 1.957529,0.373401 L 1.957487,0.370094 L 1.957530,0.366756 L 1.957658,0.363488 L 1.957873,0.360290 L 1.958174,0.357163 L 1.958560,0.354106 L 1.959033,0.351119 L 1.959591,0.348203 L 1.960235,0.345357 L 1.960965,0.342581 L 1.961781,0.339875 L 1.962683,0.337240 L 1.963671,0.334675 L 1.964738,0.332196 L 1.965878,0.329820 L 1.967091,0.327547 L 1.968377,0.325377 L 1.969735,0.323310 L 1.971167,0.321346 L 1.972671,0.319484 L 1.974249,0.317725 L 1.975899,0.316069 L 1.977622,0.314516 L 1.979418,0.313065 L 1.981287,0.311718 L 1.983217,0.310476 L 1.985196,0.309341 L 1.987225,0.308315 L 1.989303,0.307397 L 1.991431,0.306587 L 1.993608,0.305885 L 1.995835,0.305291 L 1.998111,0.304805 L 2.000437,0.304427 L 2.002812,0.304157 L 2.005236,0.303995 L 2.007710,0.303941 L 2.011518,0.304062 L 2.015194,0.304425 L 2.018738,0.305030 L 2.022151,0.305877 L 2.025432,0.306966 L 2.028582,0.308298 L 2.031601,0.309871 L 2.034488,0.311687 L 2.037244,0.313744 L 2.039868,0.316044 L 2.042361,0.318585 L 2.044722,0.321369 L 2.046922,0.324370 L 2.048931,0.327564 L 2.050749,0.330950 L 2.052375,0.334529 L 2.053809,0.338300 L 2.055053,0.342264 L 2.056105,0.346421 L 2.056966,0.350770 L 2.057636,0.355312 L 2.058114,0.360047 L 2.058401,0.364974 L 2.058497,0.370094 L 2.058401,0.375154 L 2.058114,0.380029 Z M 1.787747,0.266905 L 1.785744,0.267201 L 1.783765,0.267543 L 1.781809,0.267930 L 1.779876,0.268363 L 1.777967,0.268841 L 1.776081,0.269365 L 1.774221,0.269934 L 1.772388,0.270549 L 1.770582,0.271210 L 1.768804,0.271916 L 1.767053,0.272667 L 1.765329,0.273464 L 1.763632,0.274307 L 1.761963,0.275195 L 1.760322,0.276129 L 1.758707,0.277108 L 1.757120,0.278133 L 1.755561,0.279204 L 1.754011,0.280329 L 1.752455,0.281520 L 1.750893,0.282776 L 1.749324,0.284097 L 1.747749,0.285483 L 1.746167,0.286934 L 1.744579,0.288450 L 1.742984,0.290031 L 1.741382,0.291678 L 1.739774,0.293389 L 1.738160,0.295165 L 1.736539,0.297007 L 1.736539,0.221109 L 1.736492,0.218600 L 1.736349,0.216195 L 1.736112,0.213894 L 1.735779,0.211697 L 1.735352,0.209604 L 1.734829,0.207616 L 1.734212,0.205731 L 1.733499,0.203951 L 1.732692,0.202275 L 1.731789,0.200703 L 1.730792,0.199235 L 1.729699,0.197871 L 1.728522,0.196614 L 1.727271,0.195466 L 1.725945,0.194427 L 1.724545,0.193498 L 1.723072,0.192678 L 1.721524,0.191968 L 1.719901,0.191366 L 1.718205,0.190875 L 1.716434,0.190492 L 1.714590,0.190219 L 1.712671,0.190055 L 1.710678,0.190000 L 1.708716,0.190054 L 1.706828,0.190216 L 1.705015,0.190486 L 1.703275,0.190864 L 1.701610,0.191350 L 1.700019,0.191944 L 1.698502,0.192646 L 1.697060,0.193457 L 1.695691,0.194375 L 1.694397,0.195401 L 1.693177,0.196535 L 1.692031,0.197777 L 1.690969,0.199127 L 1.689998,0.200586 L 1.689121,0.202152 L 1.688335,0.203826 L 1.687642,0.205608 L 1.687042,0.207499 L 1.686533,0.209497 L 1.686118,0.211603 L 1.685794,0.213818 L 1.685563,0.216140 L 1.685425,0.218570 L 1.685378,0.221109 L 1.685378,0.442993 L 1.685554,0.447962 L 1.686081,0.452499 L 1.686960,0.456603 L 1.688189,0.460276 L 1.689771,0.463516 L 1.691703,0.466325 L 1.693987,0.468701 L 1.696622,0.470646 L 1.699609,0.472158 L 1.702947,0.473238 L 1.706637,0.473886 L 1.710678,0.474102 L 1.712671,0.474047 L 1.714590,0.473881 L 1.716434,0.473604 L 1.718205,0.473217 L 1.719901,0.472719 L 1.721524,0.472111 L 1.723072,0.471392 L 1.724545,0.470562 L 1.725945,0.469622 L 1.727271,0.468571 L 1.728522,0.467410 L 1.729699,0.466137 L 1.730792,0.464760 L 1.731789,0.463282 L 1.732692,0.461704 L 1.733499,0.460026 L 1.734212,0.458248 L 1.734829,0.456369 L 1.735352,0.454390 L 1.735779,0.452311 L 1.736112,0.450132 L 1.736349,0.447853 L 1.736492,0.445473 L 1.736539,0.442993 L 1.736539,0.375341 L 1.736568,0.370592 L 1.736654,0.366091 L 1.736797,0.361836 L 1.736997,0.357829 L 1.737255,0.354069 L 1.737570,0.350557 L 1.737942,0.347292 L 1.738372,0.344274 L 1.738858,0.341503 L 1.739402,0.338980 L 1.740004,0.336704 L 1.740662,0.334675 L 1.741606,0.332466 L 1.742627,0.330336 L 1.743725,0.328285 L 1.744899,0.326314 L 1.746151,0.324423 L 1.747479,0.322611 L 1.748884,0.320878 L 1.750365,0.319224 L 1.751924,0.317650 L 1.753559,0.316156 L 1.755271,0.314740 L 1.757060,0.313404 L 1.758906,0.312162 L 1.760790,0.311028 L 1.762711,0.310002 L 1.764670,0.309084 L 1.766667,0.308274 L 1.768702,0.307572 L 1.770775,0.306977 L 1.772885,0.306491 L 1.775033,0.306113 L 1.777218,0.305843 L 1.779442,0.305681 L 1.781703,0.305627 L 1.785017,0.305719 L 1.788148,0.305994 L 1.791097,0.306453 L 1.793863,0.307095 L 1.796448,0.307921 L 1.798850,0.308930 L 1.801071,0.310123 L 1.803109,0.311499 L 1.804964,0.313059 L 1.806638,0.314802 L 1.808129,0.316729 L 1.809439,0.318839 L 1.810606,0.321120 L 1.811672,0.323558 L 1.812636,0.326154 L 1.813499,0.328907 L 1.814260,0.331817 L 1.814920,0.334885 L 1.815479,0.338111 L 1.815935,0.341494 L 1.816291,0.345034 L 1.816544,0.348732 L 1.816697,0.352588 L 1.816747,0.356601 L 1.816747,0.442993 L 1.816923,0.447962 L 1.817450,0.452499 L 1.818329,0.456603 L 1.819558,0.460276 L 1.821140,0.463516 L 1.823072,0.466325 L 1.825356,0.468701 L 1.827992,0.470646 L 1.830978,0.472158 L 1.834316,0.473238 L 1.838006,0.473886 L 1.842047,0.474102 L 1.843951,0.474047 L 1.845792,0.473883 L 1.847569,0.473610 L 1.849283,0.473227 L 1.850932,0.472736 L 1.852518,0.472134 L 1.854040,0.471424 L 1.855498,0.470604 L 1.856893,0.469675 L 1.858223,0.468636 L 1.859490,0.467488 L 1.860693,0.466231 L 1.861816,0.464867 L 1.862841,0.463399 L 1.863768,0.461827 L 1.864597,0.460151 L 1.865329,0.458371 L 1.865964,0.456486 L 1.866501,0.454498 L 1.866940,0.452405 L 1.867282,0.450208 L 1.867526,0.447907 L 1.867672,0.445502 L 1.867721,0.442993 L 1.867721,0.344982 L 1.867708,0.342538 L 1.867669,0.340143 L 1.867604,0.337796 L 1.867513,0.335497 L 1.867395,0.333246 L 1.867252,0.331044 L 1.867083,0.328889 L 1.866888,0.326783 L 1.866667,0.324725 L 1.866419,0.322715 L 1.866146,0.320753 L 1.865847,0.318839 L 1.865510,0.316964 L 1.865123,0.315120 L 1.864687,0.313305 L 1.864202,0.311520 L 1.863667,0.309765 L 1.863083,0.308040 L 1.862449,0.306345 L 1.861766,0.304680 L 1.861033,0.303045 L 1.860251,0.301439 L 1.859419,0.299864 L 1.858538,0.298319 L 1.857057,0.295747 L 1.855485,0.293280 L 1.853824,0.290916 L 1.852073,0.288657 L 1.850232,0.286502 L 1.848301,0.284451 L 1.846281,0.282504 L 1.844171,0.280661 L 1.841971,0.278922 L 1.839681,0.277288 L 1.837301,0.275757 L 1.834832,0.274331 L 1.832287,0.273014 L 1.829681,0.271812 L 1.827014,0.270724 L 1.824285,0.269750 L 1.821496,0.268891 L 1.818645,0.268147 L 1.815733,0.267517 L 1.812760,0.267002 L 1.809726,0.266601 L 1.806630,0.266314 L 1.803474,0.266143 L 1.800256,0.266085 L 1.798113,0.266108 L 1.795993,0.266176 L 1.793896,0.266290 L 1.791823,0.266450 L 1.789773,0.266655 L 1.787747,0.266905 Z M 1.131479,0.344711 L 1.132124,0.347489 L 1.132682,0.350346 L 1.133154,0.353283 L 1.133541,0.356299 L 1.133841,0.359394 L 1.134056,0.362569 L 1.134185,0.365823 L 1.134228,0.369157 L 1.134182,0.372612 L 1.134046,0.375981 L 1.133818,0.379265 L 1.133499,0.382462 L 1.133089,0.385574 L 1.132588,0.388600 L 1.131996,0.391540 L 1.131313,0.394394 L 1.130538,0.397162 L 1.129673,0.399844 L 1.128716,0.402440 L 1.127669,0.404951 L 1.126546,0.407367 L 1.125363,0.409680 L 1.124120,0.411890 L 1.122817,0.413998 L 1.121455,0.416003 L 1.120032,0.417905 L 1.118550,0.419704 L 1.117008,0.421400 L 1.115406,0.422994 L 1.113744,0.424485 L 1.112022,0.425873 L 1.110240,0.427158 L 1.108416,0.428340 L 1.106565,0.429420 L 1.104689,0.430396 L 1.102786,0.431270 L 1.100857,0.432041 L 1.098903,0.432710 L 1.096922,0.433275 L 1.094915,0.433738 L 1.092882,0.434097 L 1.090823,0.434354 L 1.088739,0.434509 L 1.086628,0.434560 L 1.083115,0.434442 L 1.079699,0.434089 L 1.076379,0.433500 L 1.073156,0.432676 L 1.070028,0.431616 L 1.066997,0.430320 L 1.064063,0.428789 L 1.061224,0.427022 L 1.058482,0.425020 L 1.055836,0.422782 L 1.053287,0.420309 L 1.050834,0.417600 L 1.048529,0.414679 L 1.046425,0.411569 L 1.044521,0.408271 L 1.042817,0.404784 L 1.041314,0.401108 L 1.040011,0.397244 L 1.038909,0.393190 L 1.038007,0.388948 L 1.037306,0.384518 L 1.036805,0.379898 L 1.036504,0.375090 L 1.036404,0.370094 L 1.036505,0.364800 L 1.036807,0.359724 L 1.037312,0.354867 L 1.038018,0.350229 L 1.038925,0.345809 L 1.040035,0.341609 L 1.041346,0.337626 L 1.042859,0.333863 L 1.044573,0.330318 L 1.046490,0.326991 L 1.048608,0.323883 L 1.050928,0.320994 L 1.053394,0.318330 L 1.055954,0.315898 L 1.058605,0.313697 L 1.061349,0.311728 L 1.064186,0.309991 L 1.067114,0.308485 L 1.070136,0.307211 L 1.073249,0.306169 L 1.076455,0.305358 L 1.079754,0.304779 L 1.083144,0.304431 L 1.086628,0.304315 L 1.088829,0.304369 L 1.090998,0.304531 L 1.093134,0.304802 L 1.095238,0.305180 L 1.097309,0.305666 L 1.099348,0.306260 L 1.101354,0.306962 L 1.103327,0.307772 L 1.105268,0.308690 L 1.107177,0.309716 L 1.109053,0.310850 L 1.110896,0.312093 L 1.112690,0.313436 L 1.114418,0.314872 L 1.116079,0.316403 L 1.117674,0.318027 L 1.119203,0.319745 L 1.120665,0.321556 L 1.122060,0.323462 L 1.123390,0.325461 L 1.124653,0.327553 L 1.125849,0.329740 L 1.126980,0.332020 L 1.128044,0.334394 L 1.129031,0.336854 L 1.129933,0.339394 L 1.130749,0.342013 L 1.131479,0.344711 Z M 1.336341,0.438027 L 1.335065,0.438371 L 1.333767,0.438686 L 1.332447,0.438970 L 1.331104,0.439224 L 1.329740,0.439449 L 1.328353,0.439643 L 1.326945,0.439808 L 1.325514,0.439943 L 1.324061,0.440048 L 1.322585,0.440122 L 1.321088,0.440167 L 1.319569,0.440182 L 1.317305,0.440135 L 1.315074,0.439995 L 1.312875,0.439761 L 1.310709,0.439433 L 1.308575,0.439011 L 1.306474,0.438496 L 1.304405,0.437887 L 1.302369,0.437184 L 1.300366,0.436387 L 1.298395,0.435497 L 1.296457,0.434513 L 1.294551,0.433436 L 1.292692,0.432266 L 1.290896,0.431005 L 1.289163,0.429653 L 1.287492,0.428209 L 1.285883,0.426675 L 1.284337,0.425049 L 1.282854,0.423333 L 1.281432,0.421525 L 1.280074,0.419626 L 1.278778,0.417637 L 1.277544,0.415556 L 1.276373,0.413384 L 1.275279,0.411137 L 1.274277,0.408834 L 1.273368,0.406473 L 1.272552,0.404055 L 1.271827,0.401580 L 1.271196,0.399047 L 1.270656,0.396458 L 1.270209,0.393811 L 1.269854,0.391106 L 1.269592,0.388345 L 1.269422,0.385526 L 1.269345,0.382650 L 1.369418,0.382650 L 1.372697,0.382610 L 1.375852,0.382491 L 1.378882,0.382292 L 1.381786,0.382015 L 1.384566,0.381657 L 1.387221,0.381221 L 1.389751,0.380705 L 1.392156,0.380109 L 1.394436,0.379435 L 1.396591,0.378680 L 1.398621,0.377847 L 1.400527,0.376934 L 1.402293,0.375887 L 1.403905,0.374651 L 1.405364,0.373227 L 1.406669,0.371614 L 1.407821,0.369812 L 1.408819,0.367821 L 1.409664,0.365642 L 1.410355,0.363274 L 1.410892,0.360718 L 1.411276,0.357972 L 1.411507,0.355038 L 1.411583,0.351916 L 1.411509,0.348454 L 1.411287,0.345003 L 1.410916,0.341562 L 1.410396,0.338131 L 1.409729,0.334711 L 1.408913,0.331301 L 1.407949,0.327902 L 1.406836,0.324513 L 1.405575,0.321135 L 1.404165,0.317767 L 1.402608,0.314409 L 1.400901,0.311062 L 1.399046,0.307771 L 1.397041,0.304584 L 1.394887,0.301499 L 1.392583,0.298516 L 1.390129,0.295637 L 1.387526,0.292860 L 1.384772,0.290187 L 1.381870,0.287616 L 1.378817,0.285148 L 1.375615,0.282782 L 1.372263,0.280520 L 1.368762,0.278360 L 1.365126,0.276340 L 1.361373,0.274495 L 1.357500,0.272826 L 1.353509,0.271333 L 1.349400,0.270015 L 1.345173,0.268873 L 1.340827,0.267907 L 1.336362,0.267116 L 1.331779,0.266501 L 1.327078,0.266062 L 1.322258,0.265798 L 1.317320,0.265711 L 1.313507,0.265762 L 1.309751,0.265916 L 1.306053,0.266173 L 1.302411,0.266533 L 1.298827,0.266996 L 1.295300,0.267561 L 1.291831,0.268229 L 1.288418,0.269001 L 1.285063,0.269874 L 1.281766,0.270851 L 1.278525,0.271931 L 1.275342,0.273113 L 1.272229,0.274392 L 1.269199,0.275760 L 1.266253,0.277218 L 1.263390,0.278766 L 1.260610,0.280404 L 1.257913,0.282132 L 1.255300,0.283949 L 1.252770,0.285856 L 1.250324,0.287853 L 1.247960,0.289940 L 1.245680,0.292117 L 1.243483,0.294383 L 1.241371,0.296733 L 1.239345,0.299159 L 1.237405,0.301663 L 1.235550,0.304243 L 1.233781,0.306899 L 1.232099,0.309633 L 1.230502,0.312443 L 1.228991,0.315331 L 1.227566,0.318295 L 1.226227,0.321335 L 1.224974,0.324453 L 1.223806,0.327647 L 1.222729,0.330903 L 1.221745,0.334204 L 1.220855,0.337550 L 1.220058,0.340942 L 1.219355,0.344380 L 1.218746,0.347863 L 1.218231,0.351392 L 1.217809,0.354966 L 1.217481,0.358586 L 1.217247,0.362251 L 1.217107,0.365962 L 1.217060,0.369719 L 1.217250,0.377607 L 1.217820,0.385216 L 1.218770,0.392547 L 1.220100,0.399599 L 1.221810,0.406373 L 1.223900,0.412868 L 1.226370,0.419085 L 1.229220,0.425023 L 1.232450,0.430683 L 1.236060,0.436065 L 1.240050,0.441167 L 1.244420,0.445992 L 1.249133,0.450482 L 1.254150,0.454581 L 1.259471,0.458290 L 1.265097,0.461609 L 1.271028,0.464537 L 1.277263,0.467074 L 1.283802,0.469222 L 1.290646,0.470979 L 1.297795,0.472345 L 1.305248,0.473321 L 1.313006,0.473907 L 1.321068,0.474102 L 1.324625,0.474063 L 1.328114,0.473946 L 1.331533,0.473751 L 1.334884,0.473477 L 1.338165,0.473126 L 1.341378,0.472697 L 1.344521,0.472189 L 1.347596,0.471603 L 1.350601,0.470940 L 1.353538,0.470198 L 1.356406,0.469378 L 1.359204,0.468480 L 1.361930,0.467523 L 1.364577,0.466525 L 1.367146,0.465487 L 1.369637,0.464409 L 1.372049,0.463291 L 1.374384,0.462132 L 1.376641,0.460932 L 1.378819,0.459693 L 1.380920,0.458413 L 1.382942,0.457093 L 1.384886,0.455732 L 1.386753,0.454331 L 1.388541,0.452905 L 1.390253,0.451468 L 1.391889,0.450021 L 1.393447,0.448563 L 1.394929,0.447095 L 1.396334,0.445617 L 1.397662,0.444128 L 1.398913,0.442629 L 1.400087,0.441119 L 1.401185,0.439599 L 1.402206,0.438069 L 1.403150,0.436528 L 1.404018,0.434998 L 1.404811,0.433501 L 1.405528,0.432036 L 1.406170,0.430604 L 1.406736,0.429204 L 1.407226,0.427837 L 1.407641,0.426502 L 1.407981,0.425200 L 1.408245,0.423931 L 1.408434,0.422694 L 1.408547,0.421489 L 1.408585,0.420318 L 1.408551,0.419030 L 1.408450,0.417793 L 1.408280,0.416605 L 1.408044,0.415466 L 1.407739,0.414377 L 1.407367,0.413337 L 1.406927,0.412346 L 1.406419,0.411406 L 1.405844,0.410514 L 1.405201,0.409672 L 1.404491,0.408879 L 1.403713,0.408136 L 1.402880,0.407448 L 1.402005,0.406819 L 1.401089,0.406251 L 1.400131,0.405742 L 1.399132,0.405293 L 1.398090,0.404904 L 1.397008,0.404574 L 1.395883,0.404305 L 1.394717,0.404096 L 1.393509,0.403946 L 1.392260,0.403856 L 1.390969,0.403826 L 1.389774,0.403850 L 1.388627,0.403920 L 1.387526,0.404037 L 1.386471,0.404201 L 1.385464,0.404412 L 1.384504,0.404669 L 1.383590,0.404974 L 1.382723,0.405325 L 1.381904,0.405724 L 1.381130,0.406169 L 1.380404,0.406661 L 1.379725,0.407199 L 1.378157,0.408673 L 1.376638,0.410094 L 1.375169,0.411463 L 1.373749,0.412780 L 1.372379,0.414045 L 1.371058,0.415258 L 1.369786,0.416419 L 1.368564,0.417527 L 1.367392,0.418584 L 1.366268,0.419589 L 1.365195,0.420541 L 1.364171,0.421442 L 1.363163,0.422312 L 1.362140,0.423173 L 1.361102,0.424025 L 1.360048,0.424867 L 1.358978,0.425701 L 1.357893,0.426525 L 1.356792,0.427341 L 1.355675,0.428147 L 1.354543,0.428944 L 1.353395,0.429732 L 1.352232,0.430511 L 1.351052,0.431281 L 1.349862,0.432029 L 1.348666,0.432743 L 1.347463,0.433424 L 1.346253,0.434071 L 1.345037,0.434684 L 1.343814,0.435263 L 1.342585,0.435808 L 1.341349,0.436320 L 1.340107,0.436797 L 1.338858,0.437241 L 1.337603,0.437651 L 1.336341,0.438027 Z M 2.255332,0.209604 L 2.254905,0.211697 L 2.254572,0.213894 L 2.254335,0.216195 L 2.254192,0.218600 L 2.254145,0.221109 L 2.254145,0.442993 L 2.254193,0.445444 L 2.254340,0.447798 L 2.254584,0.450056 L 2.254925,0.452218 L 2.255365,0.454283 L 2.255901,0.456252 L 2.256536,0.458125 L 2.257268,0.459901 L 2.258098,0.461581 L 2.259025,0.463165 L 2.260050,0.464653 L 2.261172,0.466044 L 2.262373,0.467331 L 2.263632,0.468506 L 2.264949,0.469569 L 2.266326,0.470521 L 2.267760,0.471360 L 2.269254,0.472087 L 2.270806,0.472703 L 2.272416,0.473207 L 2.274085,0.473598 L 2.275813,0.473878 L 2.277599,0.474046 L 2.279444,0.474102 L 2.281320,0.474048 L 2.283137,0.473886 L 2.284896,0.473616 L 2.286596,0.473238 L 2.288238,0.472752 L 2.289821,0.472158 L 2.291346,0.471456 L 2.292812,0.470645 L 2.294219,0.469727 L 2.295568,0.468701 L 2.296859,0.467567 L 2.298090,0.466325 L 2.299243,0.464975 L 2.300295,0.463516 L 2.301247,0.461950 L 2.302099,0.460276 L 2.302850,0.458494 L 2.303502,0.456603 L 2.304053,0.454605 L 2.304504,0.452499 L 2.304854,0.450284 L 2.305105,0.447962 L 2.305255,0.445532 L 2.305305,0.442993 L 2.305305,0.221109 L 2.305256,0.218570 L 2.305108,0.216140 L 2.304860,0.213818 L 2.304514,0.211603 L 2.304069,0.209497 L 2.303525,0.207499 L 2.302882,0.205608 L 2.302140,0.203826 L 2.301300,0.202152 L 2.300360,0.200586 L 2.299322,0.199127 L 2.298184,0.197777 L 2.296966,0.196535 L 2.295685,0.195401 L 2.294342,0.194375 L 2.292937,0.193457 L 2.291469,0.192646 L 2.289938,0.191944 L 2.288345,0.191350 L 2.286690,0.190864 L 2.284972,0.190486 L 2.283192,0.190216 L 2.281349,0.190054 L 2.279444,0.190000 L 2.277541,0.190055 L 2.275704,0.190219 L 2.273933,0.190492 L 2.272229,0.190875 L 2.270591,0.191366 L 2.269020,0.191968 L 2.267515,0.192678 L 2.266076,0.193498 L 2.264704,0.194427 L 2.263398,0.195466 L 2.262158,0.196614 L 2.260985,0.197871 L 2.259892,0.199235 L 2.258895,0.200703 L 2.257992,0.202275 L 2.257185,0.203951 L 2.256472,0.205731 L 2.255855,0.207616 L 2.255332,0.209604 Z M 1.347960,0.314341 L 1.349934,0.316604 L 1.351763,0.319050 L 1.353448,0.321679 L 1.354988,0.324492 L 1.356384,0.327489 L 1.357635,0.330669 L 1.358742,0.334032 L 1.359704,0.337579 L 1.360522,0.341310 L 1.361196,0.345224 L 1.361725,0.349321 L 1.362109,0.353602 L 1.269345,0.353602 L 1.269849,0.349380 L 1.270488,0.345333 L 1.271260,0.341462 L 1.272166,0.337767 L 1.273207,0.334247 L 1.274381,0.330903 L 1.275690,0.327735 L 1.277133,0.324742 L 1.278709,0.321925 L 1.280420,0.319284 L 1.282265,0.316819 L 1.284243,0.314529 L 1.286337,0.312419 L 1.288525,0.310492 L 1.290808,0.308749 L 1.293187,0.307189 L 1.295660,0.305813 L 1.298228,0.304620 L 1.300892,0.303611 L 1.303650,0.302785 L 1.306503,0.302143 L 1.309452,0.301684 L 1.312495,0.301409 L 1.315633,0.301317 L 1.318921,0.301407 L 1.322101,0.301679 L 1.325173,0.302131 L 1.328137,0.302764 L 1.330993,0.303578 L 1.333741,0.304573 L 1.336381,0.305749 L 1.338913,0.307106 L 1.341337,0.308643 L 1.343653,0.310362 L 1.345860,0.312261 L 1.347960,0.314341 Z" fill="#000000" fill-rule="evenodd"/>
</svg>
